<?xml version="1.0" encoding="utf-8"?>
<!-- Generator: Adobe Illustrator 27.5.0, SVG Export Plug-In . SVG Version: 6.00 Build 0)  -->
<svg version="1.1"
	 id="svg7180" xmlns:rdf="http://www.w3.org/1999/02/22-rdf-syntax-ns#" xmlns:svg="http://www.w3.org/2000/svg" xmlns:dc="http://purl.org/dc/elements/1.1/" xmlns:cc="http://creativecommons.org/ns#" xmlns:sodipodi="http://sodipodi.sourceforge.net/DTD/sodipodi-0.dtd" xmlns:inkscape="http://www.inkscape.org/namespaces/inkscape"
	 xmlns="http://www.w3.org/2000/svg" xmlns:xlink="http://www.w3.org/1999/xlink" x="0px" y="0px" viewBox="0 0 65.2 53.2"
	 style="enable-background:new 0 0 65.2 53.2;" xml:space="preserve">
<style type="text/css">
	.st0{opacity:0.6337;}
	.st1{fill:url(#path4704_00000155113674896353577200000013261075510959252882_);}
</style>
<sodipodi:namedview  bordercolor="#666666" borderopacity="1.0" fit-margin-bottom="0" fit-margin-left="0" fit-margin-right="0" fit-margin-top="0" id="base" inkscape:current-layer="layer1" inkscape:cx="188.09584" inkscape:cy="-45.259669" inkscape:document-units="mm" inkscape:pageopacity="0.0" inkscape:pageshadow="2" inkscape:window-height="455" inkscape:window-maximized="0" inkscape:window-width="651" inkscape:window-x="104" inkscape:window-y="104" inkscape:zoom="1.4" pagecolor="#ffffff" showgrid="false" units="mm">
	</sodipodi:namedview>
<g id="layer1" transform="translate(-54.193968,-30.783042)" inkscape:groupmode="layer" inkscape:label="Layer 1">
	<g id="g4702" transform="matrix(0.12732727,0,0,0.13755966,54.194187,22.146909)" class="st0">
		
			<linearGradient id="path4704_00000049939067074611598190000005002837000401264564_" gradientUnits="userSpaceOnUse" x1="26644.9219" y1="-91268.9844" x2="27156.9258" y2="-91268.9844" gradientTransform="matrix(0.1273 0 0 -0.1376 -3392.6267 -12298.9316)">
			<stop  offset="0" style="stop-color:#5EB0C5"/>
			<stop  offset="1" style="stop-color:#A3DBEA"/>
		</linearGradient>
		
			<path id="path4704" inkscape:connector-curvature="0" style="fill:url(#path4704_00000049939067074611598190000005002837000401264564_);" d="
			M511,187.1c-7-75.7-72.7-124.3-137.4-124.3c-64.6,0-117.7,52.4-117.7,117l0,0c0-64.6-53-117-117.7-117
			C73.7,62.8,7.9,111.4,1,187.1c-0.7,7.2-1,14.1-1,20.7c-0.6,152.3,169.2,154.9,247,235.5c3.1,3.2,2.6,3,2.6,3
			c1.6,1.8,3.9,2.9,6.3,2.9c2.4,0,4.8-1,6.4-2.9c0,0-0.5,0.3,2.6-3c77.9-80.7,247.7-83.2,247-235.5C512,201.2,511.7,194.3,511,187.1
			z"/>
	</g>
</g>
</svg>
