<?xml version="1.0" encoding="UTF-8" standalone="no"?>
<!-- Created with Inkscape (http://www.inkscape.org/) -->

<svg
   xmlns:dc="http://purl.org/dc/elements/1.1/"
   xmlns:cc="http://creativecommons.org/ns#"
   xmlns:rdf="http://www.w3.org/1999/02/22-rdf-syntax-ns#"
   xmlns:svg="http://www.w3.org/2000/svg"
   xmlns="http://www.w3.org/2000/svg"
   xmlns:sodipodi="http://sodipodi.sourceforge.net/DTD/sodipodi-0.dtd"
   xmlns:inkscape="http://www.inkscape.org/namespaces/inkscape"
   width="239.67825"
   height="33.182388"
   id="svg7861"
   version="1.1"
   inkscape:version="0.48.2 r9819"
   sodipodi:docname="新規ドキュメント 12">
  <defs
     id="defs7863" />
  <sodipodi:namedview
     id="base"
     pagecolor="#ffffff"
     bordercolor="#666666"
     borderopacity="1.0"
     inkscape:pageopacity="0.0"
     inkscape:pageshadow="2"
     inkscape:zoom="0.35"
     inkscape:cx="14.839122"
     inkscape:cy="-191.98023"
     inkscape:document-units="px"
     inkscape:current-layer="layer1"
     showgrid="false"
     fit-margin-top="0"
     fit-margin-left="0"
     fit-margin-right="0"
     fit-margin-bottom="0"
     inkscape:window-width="651"
     inkscape:window-height="455"
     inkscape:window-x="26"
     inkscape:window-y="26"
     inkscape:window-maximized="0" />
  <metadata
     id="metadata7866">
    <rdf:RDF>
      <cc:Work
         rdf:about="">
        <dc:format>image/svg+xml</dc:format>
        <dc:type
           rdf:resource="http://purl.org/dc/dcmitype/StillImage" />
        <dc:title></dc:title>
      </cc:Work>
    </rdf:RDF>
  </metadata>
  <g
     inkscape:label="レイヤー 1"
     inkscape:groupmode="layer"
     id="layer1"
     transform="translate(-360.16088,-287.19956)">
    <g
       transform="translate(-496.66437,-10553.25)"
       style="font-size:29.06147385px;font-style:normal;font-variant:normal;font-weight:normal;font-stretch:normal;line-height:200%;letter-spacing:1px;word-spacing:0px;writing-mode:lr-tb;opacity:0.98999999;fill:#ffffff;fill-opacity:1;stroke:none;font-family:Noto Sans JP;-inkscape-font-specification:Noto Sans JP"
       id="text3580">
      <path
         d="m 896.67383,10868.186 c 2.04335,0 3.65261,-0.923 4.82778,-2.771 1.17514,-1.849 1.77453,-4.625 1.79816,-8.33 -0.0236,-3.687 -0.62302,-6.441 -1.79816,-8.261 -1.17517,-1.82 -2.78443,-2.728 -4.82778,-2.724 -2.05729,0 -3.67502,0.899 -4.8532,2.714 -1.17819,1.814 -1.77878,4.571 -1.80179,8.271 0.023,3.705 0.6236,6.481 1.80179,8.33 1.17818,1.848 2.79591,2.772 4.8532,2.771 z m 0,-2.121 c -1.23752,0.02 -2.22075,-0.694 -2.9497,-2.136 -0.72895,-1.442 -1.1019,-3.724 -1.11885,-6.844 0.0169,-3.09 0.3899,-5.345 1.11885,-6.764 0.72895,-1.419 1.71218,-2.119 2.9497,-2.1 1.22359,-0.02 2.19834,0.681 2.92428,2.1 0.72591,1.419 1.09765,3.674 1.11522,6.764 -0.0176,3.12 -0.38931,5.402 -1.11522,6.844 -0.72594,1.442 -1.70069,2.154 -2.92428,2.136 z"
         id="path4096"
         inkscape:connector-curvature="0" />
      <path
         d="m 913.29983,10868.186 c 1.86717,-0.01 3.48006,-0.648 4.83868,-1.907 1.35859,-1.258 2.07058,-3.064 2.13599,-5.416 -0.046,-2.329 -0.67327,-4.043 -1.88171,-5.14 -1.20847,-1.098 -2.72207,-1.642 -4.5408,-1.631 -0.63148,0 -1.19938,0.08 -1.7037,0.225 -0.50434,0.148 -0.99232,0.354 -1.46396,0.618 l 0.5231,-6.161 8.04993,0 0,-2.296 -10.37481,0 -0.66841,9.997 1.42399,0.872 c 0.59272,-0.408 1.1582,-0.718 1.69645,-0.93 0.53823,-0.212 1.15456,-0.319 1.84901,-0.32 1.35375,0.01 2.42417,0.439 3.21125,1.282 0.78706,0.844 1.18907,2.034 1.20604,3.571 -0.0327,1.57 -0.47589,2.797 -1.32955,3.68 -0.85368,0.883 -1.92167,1.333 -3.20399,1.348 -1.22238,-0.02 -2.25042,-0.262 -3.08411,-0.72 -0.83369,-0.457 -1.54932,-1.002 -2.14688,-1.634 l -1.30775,1.743 c 0.69807,0.741 1.59048,1.389 2.67725,1.944 1.08676,0.555 2.45142,0.847 4.09398,0.875 z"
         id="path4098"
         inkscape:connector-curvature="0" />
      <path
         d="m 930.91391,10868.186 c 2.04335,0 3.6526,-0.923 4.82777,-2.771 1.17515,-1.849 1.77453,-4.625 1.79816,-8.33 -0.0236,-3.687 -0.62301,-6.441 -1.79816,-8.261 -1.17517,-1.82 -2.78442,-2.728 -4.82777,-2.724 -2.05729,0 -3.67502,0.899 -4.85321,2.714 -1.17818,1.814 -1.77878,4.571 -1.80178,8.271 0.023,3.705 0.6236,6.481 1.80178,8.33 1.17819,1.848 2.79592,2.772 4.85321,2.771 z m 0,-2.121 c -1.23753,0.02 -2.22076,-0.694 -2.9497,-2.136 -0.72896,-1.442 -1.10191,-3.724 -1.11886,-6.844 0.0169,-3.09 0.3899,-5.345 1.11886,-6.764 0.72894,-1.419 1.71217,-2.119 2.9497,-2.1 1.22358,-0.02 2.19834,0.681 2.92427,2.1 0.72591,1.419 1.09765,3.674 1.11522,6.764 -0.0176,3.12 -0.38931,5.402 -1.11522,6.844 -0.72593,1.442 -1.70069,2.154 -2.92427,2.136 z"
         id="path4100"
         inkscape:connector-curvature="0" />
      <path
         d="m 941.29177,10860.689 7.43964,0 0,-2.035 -7.43964,0 z"
         id="path4102"
         inkscape:connector-curvature="0" />
      <path
         d="m 959.57327,10856.562 c 1.2926,0.02 2.26009,0.441 2.90247,1.275 0.64236,0.834 0.96325,1.978 0.96265,3.433 -0.0242,1.473 -0.37538,2.646 -1.05346,3.516 -0.6781,0.871 -1.53783,1.316 -2.57917,1.337 -1.34106,0 -2.40058,-0.594 -3.17856,-1.758 -0.778,-1.164 -1.24903,-2.854 -1.4131,-5.071 0.67022,-0.966 1.39311,-1.665 2.16869,-2.096 0.77556,-0.432 1.50572,-0.644 2.19048,-0.636 z m 0.23249,11.624 c 1.70369,-0.03 3.13495,-0.667 4.29377,-1.91 1.1588,-1.244 1.76182,-2.913 1.80906,-5.006 -0.0206,-2.224 -0.55339,-3.894 -1.59836,-5.01 -1.045,-1.115 -2.47868,-1.674 -4.30105,-1.674 -0.85791,0 -1.714,0.239 -2.56827,0.694 -0.85428,0.454 -1.61592,1.085 -2.28493,1.892 0.0981,-3.268 0.66477,-5.573 1.70007,-6.916 1.0353,-1.343 2.29946,-1.992 3.79248,-1.947 0.66234,0 1.29199,0.148 1.88897,0.432 0.59695,0.284 1.11036,0.682 1.54024,1.195 l 1.45305,-1.656 c -0.5776,-0.638 -1.27507,-1.157 -2.0924,-1.559 -0.81735,-0.401 -1.77637,-0.608 -2.87705,-0.621 -2.13357,-0.04 -3.962,0.84 -5.48528,2.641 -1.52329,1.801 -2.32004,4.767 -2.39027,8.896 0.0406,3.517 0.71502,6.154 2.02338,7.912 1.30835,1.758 3.00721,2.637 5.09659,2.637 z"
         id="path4104"
         inkscape:connector-curvature="0" />
      <path
         d="m 973.9325,10867.809 2.7608,0 c 0.0852,-2.751 0.30226,-5.216 0.65118,-7.395 0.34891,-2.179 0.95775,-4.25 1.82655,-6.212 0.86877,-1.963 2.12557,-3.995 3.77041,-6.097 l 0,-1.627 -13.33905,0 0,2.296 10.31669,0 c -2.04579,2.831 -3.51943,5.72 -4.42092,8.667 -0.9015,2.947 -1.42339,6.403 -1.56566,10.368 z"
         id="path4106"
         inkscape:connector-curvature="0" />
      <path
         d="m 993.40649,10868.186 c 2.03305,-0.03 3.64836,-0.567 4.84593,-1.594 1.19755,-1.028 1.81028,-2.337 1.83808,-3.927 -0.034,-1.437 -0.40199,-2.596 -1.10428,-3.477 -0.70233,-0.881 -1.53541,-1.582 -2.49926,-2.103 l 0,-0.145 c 0.67808,-0.507 1.31258,-1.208 1.9035,-2.104 0.5909,-0.895 0.90573,-1.908 0.94449,-3.04 -0.0164,-1.67 -0.53583,-3.016 -1.5584,-4.036 -1.0226,-1.02 -2.45023,-1.544 -4.28288,-1.573 -1.69282,0.02 -3.08048,0.516 -4.163,1.482 -1.08253,0.967 -1.64196,2.274 -1.67828,3.924 0.0218,1.116 0.30514,2.08 0.85004,2.891 0.54489,0.811 1.22056,1.485 2.02701,2.02 l 0,0.145 c -1.01533,0.524 -1.91259,1.278 -2.69179,2.26 -0.7792,0.982 -1.18969,2.185 -1.23146,3.61 0.0381,1.673 0.68112,3.028 1.92893,4.065 1.24781,1.038 2.87159,1.572 4.87137,1.602 z m 1.45305,-11.944 c -1.29323,-0.466 -2.40481,-1.045 -3.33476,-1.736 -0.92996,-0.692 -1.41673,-1.663 -1.46032,-2.913 0.0182,-1.047 0.33783,-1.882 0.95902,-2.503 0.62117,-0.622 1.43488,-0.941 2.44113,-0.956 1.15456,0.03 2.04213,0.401 2.66272,1.119 0.62056,0.718 0.93418,1.614 0.94085,2.688 -10e-4,0.786 -0.18769,1.539 -0.55942,2.26 -0.37175,0.72 -0.92149,1.401 -1.64922,2.041 z m -1.39493,9.968 c -1.30413,-0.02 -2.36486,-0.392 -3.18219,-1.111 -0.81735,-0.72 -1.23874,-1.657 -1.26416,-2.812 0.0139,-1.022 0.28395,-1.942 0.81008,-2.761 0.52612,-0.818 1.2248,-1.506 2.09603,-2.063 1.55718,0.57 2.87462,1.224 3.95231,1.961 1.07767,0.738 1.63952,1.799 1.68554,3.183 -0.0182,1.078 -0.39597,1.944 -1.13338,2.597 -0.73744,0.653 -1.72551,0.989 -2.96423,1.006 z"
         id="path4108"
         inkscape:connector-curvature="0" />
      <path
         d="m 1003.6972,10867.809 13.3971,0 0,-2.296 -5.8994,0 c -0.5467,0 -1.1243,0.03 -1.7327,0.07 -0.6085,0.04 -1.1934,0.09 -1.7546,0.134 2.5344,-2.362 4.5493,-4.642 6.0447,-6.84 1.4954,-2.198 2.2607,-4.355 2.2958,-6.47 -0.02,-1.928 -0.5758,-3.455 -1.6674,-4.581 -1.0916,-1.125 -2.5991,-1.7 -4.5226,-1.725 -1.335,0.01 -2.5011,0.3 -3.4982,0.861 -0.9972,0.561 -1.9235,1.32 -2.779,2.278 l 1.5403,1.511 c 0.5836,-0.713 1.2472,-1.3 1.9906,-1.758 0.7435,-0.459 1.5524,-0.697 2.4266,-0.712 1.3205,0.02 2.3049,0.42 2.9534,1.191 0.6484,0.771 0.9717,1.779 0.9699,3.022 0.011,1.81 -0.781,3.829 -2.3758,6.056 -1.5947,2.227 -4.0576,4.791 -7.3887,7.69 z"
         id="path4110"
         inkscape:connector-curvature="0" />
      <path
         d="m 1020.8753,10860.689 7.4397,0 0,-2.035 -7.4397,0 z"
         id="path4112"
         inkscape:connector-curvature="0" />
      <path
         d="m 1039.1568,10856.562 c 1.2926,0.02 2.2601,0.441 2.9025,1.275 0.6423,0.834 0.9632,1.978 0.9626,3.433 -0.024,1.473 -0.3753,2.646 -1.0534,3.516 -0.6781,0.871 -1.5379,1.316 -2.5792,1.337 -1.3411,0 -2.4006,-0.594 -3.1786,-1.758 -0.778,-1.164 -1.249,-2.854 -1.4131,-5.071 0.6703,-0.966 1.3932,-1.665 2.1687,-2.096 0.7756,-0.432 1.5057,-0.644 2.1905,-0.636 z m 0.2325,11.624 c 1.7037,-0.03 3.135,-0.667 4.2938,-1.91 1.1588,-1.244 1.7618,-2.913 1.809,-5.006 -0.021,-2.224 -0.5534,-3.894 -1.5983,-5.01 -1.045,-1.115 -2.4787,-1.674 -4.3011,-1.674 -0.8579,0 -1.714,0.239 -2.5682,0.694 -0.8543,0.454 -1.616,1.085 -2.285,1.892 0.098,-3.268 0.6648,-5.573 1.7001,-6.916 1.0353,-1.343 2.2994,-1.992 3.7925,-1.947 0.6623,0 1.292,0.148 1.8889,0.432 0.597,0.284 1.1104,0.682 1.5403,1.195 l 1.453,-1.656 c -0.5776,-0.638 -1.275,-1.157 -2.0924,-1.559 -0.8173,-0.401 -1.7763,-0.608 -2.877,-0.621 -2.1336,-0.04 -3.962,0.84 -5.4853,2.641 -1.5233,1.801 -2.32,4.767 -2.3903,8.896 0.041,3.517 0.7151,6.154 2.0234,7.912 1.3084,1.758 3.0072,2.637 5.0966,2.637 z"
         id="path4114"
         inkscape:connector-curvature="0" />
      <path
         d="m 1055.3469,10868.186 c 1.8672,-0.01 3.4801,-0.648 4.8387,-1.907 1.3586,-1.258 2.0706,-3.064 2.136,-5.416 -0.046,-2.329 -0.6733,-4.043 -1.8817,-5.14 -1.2085,-1.098 -2.7221,-1.642 -4.5408,-1.631 -0.6315,0 -1.1994,0.08 -1.7038,0.225 -0.5043,0.148 -0.9923,0.354 -1.4639,0.618 l 0.5231,-6.161 8.0499,0 0,-2.296 -10.3748,0 -0.6684,9.997 1.424,0.872 c 0.5927,-0.408 1.1582,-0.718 1.6964,-0.93 0.5383,-0.212 1.1546,-0.319 1.8491,-0.32 1.3537,0.01 2.4241,0.439 3.2112,1.282 0.7871,0.844 1.1891,2.034 1.206,3.571 -0.033,1.57 -0.4758,2.797 -1.3295,3.68 -0.8537,0.883 -1.9217,1.333 -3.204,1.348 -1.2224,-0.02 -2.2504,-0.262 -3.0841,-0.72 -0.8337,-0.457 -1.5493,-1.002 -2.1469,-1.634 l -1.3077,1.743 c 0.698,0.741 1.5904,1.389 2.6772,1.944 1.0868,0.555 2.4514,0.847 4.094,0.875 z"
         id="path4116"
         inkscape:connector-curvature="0" />
      <path
         d="m 1066.1607,10867.809 13.3971,0 0,-2.296 -5.8994,0 c -0.5467,0 -1.1243,0.03 -1.7327,0.07 -0.6085,0.04 -1.1934,0.09 -1.7546,0.134 2.5344,-2.362 4.5493,-4.642 6.0447,-6.84 1.4954,-2.198 2.2607,-4.355 2.2958,-6.47 -0.02,-1.928 -0.5757,-3.455 -1.6673,-4.581 -1.0917,-1.125 -2.5992,-1.7 -4.5227,-1.725 -1.335,0.01 -2.501,0.3 -3.4982,0.861 -0.9972,0.561 -1.9235,1.32 -2.779,2.278 l 1.5403,1.511 c 0.5836,-0.713 1.2472,-1.3 1.9907,-1.758 0.7434,-0.459 1.5523,-0.697 2.4266,-0.712 1.3204,0.02 2.3049,0.42 2.9533,1.191 0.6484,0.771 0.9717,1.779 0.9699,3.022 0.011,1.81 -0.781,3.829 -2.3757,6.056 -1.5948,2.227 -4.0577,4.791 -7.3888,7.69 z"
         id="path4118"
         inkscape:connector-curvature="0" />
      <path
         d="m 1089.6742,10868.186 c 1.9374,-0.01 3.5478,-0.551 4.8314,-1.609 1.2835,-1.058 1.9495,-2.546 1.9979,-4.464 -0.032,-1.461 -0.4698,-2.652 -1.315,-3.575 -0.8452,-0.923 -1.9084,-1.533 -3.1895,-1.831 l 0,-0.116 c 1.1364,-0.421 2.0458,-1.061 2.7282,-1.918 0.6823,-0.857 1.0322,-1.933 1.0498,-3.226 -0.034,-1.697 -0.6194,-3.01 -1.7546,-3.938 -1.1352,-0.927 -2.6137,-1.397 -4.4354,-1.409 -1.2291,0.01 -2.331,0.255 -3.3057,0.723 -0.9748,0.468 -1.8587,1.079 -2.6518,1.834 l 1.4239,1.686 c 0.5982,-0.62 1.269,-1.117 2.0125,-1.49 0.7435,-0.372 1.5451,-0.564 2.4048,-0.573 1.1165,0.01 1.9931,0.32 2.6301,0.922 0.6369,0.602 0.9614,1.418 0.9735,2.449 0.028,1.174 -0.4063,2.139 -1.3041,2.895 -0.8979,0.756 -2.4296,1.147 -4.5953,1.173 l 0,2.034 c 2.4248,0.02 4.143,0.41 5.1547,1.174 1.0117,0.763 1.5021,1.786 1.4712,3.069 -0.022,1.247 -0.428,2.219 -1.2169,2.917 -0.7889,0.698 -1.8266,1.053 -3.1132,1.065 -1.1975,-0.02 -2.2244,-0.264 -3.0804,-0.73 -0.8561,-0.467 -1.5924,-1.038 -2.2087,-1.711 l -1.3368,1.743 c 0.686,0.783 1.5808,1.456 2.6845,2.02 1.1037,0.564 2.4853,0.86 4.1449,0.886 z"
         id="path4120"
         inkscape:connector-curvature="0" />
    </g>
    <g
       style="opacity:0.98999999;fill:#ffffff"
       transform="matrix(0.06054718,-0.03093675,0.03093675,0.06054718,345.94991,297.45025)"
       id="g4602">
      <path
         inkscape:connector-curvature="0"
         class="st0"
         d="m 325.594,0 c -0.247,0 -3.346,0 -30.05,0 v 138.282 h 30.05 c 13.162,0 23.836,-10.674 23.836,-23.844 V 23.835 C 349.43,10.665 338.756,0 325.594,0 z"
         style="fill:#ffffff;fill-opacity:1"
         id="path4604" />
      <path
         inkscape:connector-curvature="0"
         class="st0"
         d="m 162.57,256 c 0,128.936 50.448,256 108.372,256 2.959,0 5.654,0 8.3,0 V 373.076 c -9.602,-2.16 -17.127,-10.072 -18.413,-20.184 0,0 -6.7,-32.614 -6.7,-96.892 0,-64.278 6.7,-96.892 6.7,-96.892 1.286,-10.112 8.811,-18.024 18.413,-20.184 V 0 c -2.646,0 -5.341,0 -8.3,0 C 213.019,0 162.57,127.065 162.57,256 z"
         style="fill:#ffffff;fill-opacity:1"
         id="path4606" />
      <path
         inkscape:connector-curvature="0"
         class="st0"
         d="m 325.594,373.719 h -30.05 V 512 c 26.704,0 29.803,0 30.05,0 13.162,0 23.836,-10.664 23.836,-23.835 v -90.602 c 0,-13.171 -10.674,-23.844 -23.836,-23.844 z"
         style="fill:#ffffff;fill-opacity:1"
         id="path4608" />
    </g>
  </g>
</svg>
