<?xml version="1.0" encoding="iso-8859-1"?>
<!-- Generator: Adobe Illustrator 27.3.1, SVG Export Plug-In . SVG Version: 6.00 Build 0)  -->
<svg version="1.1" id="&#x30EC;&#x30A4;&#x30E4;&#x30FC;_1"
	 xmlns="http://www.w3.org/2000/svg" xmlns:xlink="http://www.w3.org/1999/xlink" x="0px" y="0px" viewBox="0 0 243.244 50.768"
	 style="enable-background:new 0 0 243.244 50.768;" xml:space="preserve">
<g>
	<g>
		<g>
			<linearGradient id="SVGID_1_" gradientUnits="userSpaceOnUse" x1="58.6853" y1="14.7755" x2="243.2385" y2="14.7755">
				<stop  offset="0" style="stop-color:#7BC3D8"/>
				<stop  offset="1" style="stop-color:#60A2B5"/>
			</linearGradient>
			<path style="fill:url(#SVGID_1_);" d="M62.37,9.862c-0.599-1.984-2.142-5.039-3.685-7.243l3.433-1.354
				c1.638,2.173,3.181,5.07,3.874,7.086L62.37,9.862z M73.11,10.902h10.015v18.55h-4V28.16H58.717v-3.716h20.408v-3.275H60.512
				v-3.622h18.613v-2.897H59.441v-3.748h9.542V0.005h4.126V10.902z M83.66,2.209c-1.386,2.803-2.992,5.795-4.347,7.779l-3.275-1.134
				c1.229-2.173,2.677-5.417,3.433-7.873L83.66,2.209z"/>
			
				<linearGradient id="SVGID_00000078728142053074701950000015358756976164392579_" gradientUnits="userSpaceOnUse" x1="58.6853" y1="14.7755" x2="243.2385" y2="14.7755">
				<stop  offset="0" style="stop-color:#7BC3D8"/>
				<stop  offset="1" style="stop-color:#60A2B5"/>
			</linearGradient>
			<path style="fill:url(#SVGID_00000078728142053074701950000015358756976164392579_);" d="M116.955,28.16h-23.81v1.323h-3.748
				V1.485h26.833v3.59H99.193l2.866,0.725c-0.221,0.599-0.504,1.165-0.819,1.732h12.881v3.118h-7.307v2.331h8.692v3.212h-8.283
				c1.669,2.457,4.661,3.968,8.85,4.535c-0.819,0.756-1.795,2.142-2.236,3.118c-3.905-0.787-6.645-2.425-8.566-4.913
				c-1.448,1.953-4.094,3.748-8.629,5.039c-0.473-0.787-1.543-2.078-2.299-2.771c5.354-1.26,7.496-3.118,8.314-5.007h-8.031V12.98
				h8.472V10.65h-3.905c-0.599,0.756-1.229,1.417-1.858,1.984c-0.724-0.535-2.268-1.417-3.118-1.826
				c1.858-1.354,3.464-3.559,4.283-5.732h-5.354v19.526h23.81V28.16z"/>
			
				<linearGradient id="SVGID_00000150080961974126340180000007520265558964569527_" gradientUnits="userSpaceOnUse" x1="58.6853" y1="14.7755" x2="243.2385" y2="14.7755">
				<stop  offset="0" style="stop-color:#7BC3D8"/>
				<stop  offset="1" style="stop-color:#60A2B5"/>
			</linearGradient>
			<path style="fill:url(#SVGID_00000150080961974126340180000007520265558964569527_);" d="M130.441,2.65
				c-0.819,2.677-1.858,6.11-2.74,8.566c1.89,2.394,2.299,4.504,2.299,6.33c0,2.016-0.41,3.339-1.386,4.031
				c-0.504,0.347-1.102,0.536-1.827,0.662c-0.535,0.063-1.291,0.094-2.016,0.063c-0.031-0.882-0.315-2.299-0.819-3.181
				c0.567,0.031,0.976,0.031,1.386,0.031c0.346-0.031,0.63-0.095,0.882-0.283c0.346-0.252,0.472-0.882,0.472-1.764
				c0-1.449-0.409-3.401-2.173-5.512c0.63-1.984,1.291-4.724,1.795-6.866h-2.456v24.723h-3.244V1.39h6.834l0.536-0.157L130.441,2.65
				z M145.054,25.861c0.504,0,0.599-0.472,0.661-3.685c0.693,0.567,2.205,1.165,3.118,1.386c-0.315,4.409-1.134,5.606-3.37,5.606
				h-2.11c-2.74,0-3.338-1.071-3.338-4.283v-6.834h-2.331c-0.378,5.701-1.701,9.322-7.842,11.37
				c-0.314-0.882-1.228-2.268-1.984-2.929c5.039-1.512,5.984-4.062,6.299-8.44h-3.464v-3.338h17.542v3.338h-4.724v6.803
				c0,0.914,0.062,1.008,0.504,1.008H145.054z M137.243,3.469V0.162h3.622v3.307h7.527v6.173h-2.425v2.803h-13.416V9.674h-2.331
				V3.469H137.243z M144.959,6.65h-11.4v2.582h11.4V6.65z"/>
			
				<linearGradient id="SVGID_00000057860319900648498190000003580604328206674861_" gradientUnits="userSpaceOnUse" x1="58.6853" y1="14.7755" x2="243.2385" y2="14.7755">
				<stop  offset="0" style="stop-color:#7BC3D8"/>
				<stop  offset="1" style="stop-color:#60A2B5"/>
			</linearGradient>
			<path style="fill:url(#SVGID_00000057860319900648498190000003580604328206674861_);" d="M166.98,28.192l-2.362-3.748
				c1.197-0.126,2.079-0.315,2.929-0.504c4.031-0.945,7.181-3.842,7.181-8.44c0-4.346-2.362-7.59-6.614-8.314
				c-0.441,2.677-0.977,5.574-1.89,8.535c-1.89,6.361-4.598,10.267-8.031,10.267c-3.496,0-6.393-3.842-6.393-9.165
				c0-7.275,6.299-13.479,14.456-13.479c7.811,0,12.724,5.417,12.724,12.283C178.979,22.271,174.916,26.964,166.98,28.192z
				 M158.319,21.138c1.323,0,2.551-1.984,3.843-6.236c0.724-2.33,1.322-5.007,1.669-7.621c-5.196,1.07-8,5.669-8,9.133
				C155.831,19.594,157.091,21.138,158.319,21.138z"/>
			
				<linearGradient id="SVGID_00000100379367186745438000000012541319524100658586_" gradientUnits="userSpaceOnUse" x1="58.6853" y1="14.7755" x2="243.2385" y2="14.7755">
				<stop  offset="0" style="stop-color:#7BC3D8"/>
				<stop  offset="1" style="stop-color:#60A2B5"/>
			</linearGradient>
			<path style="fill:url(#SVGID_00000100379367186745438000000012541319524100658586_);" d="M194.637,8.193h-12.314v-2.96h12.314
				V8.193z M210.353,14.303c-1.008,3.811-2.677,6.803-4.85,9.165c1.858,1.197,4.062,2.11,6.487,2.709
				c-0.818,0.787-1.89,2.268-2.425,3.244c-2.646-0.788-4.944-1.953-6.929-3.433c-2.11,1.48-4.535,2.614-7.212,3.433
				c-0.378-0.914-1.26-2.394-1.953-3.244v1.606h-6.582v1.228h-3.181V18.271h9.763v7.842c2.362-0.598,4.504-1.48,6.362-2.708
				c-1.449-1.575-2.646-3.401-3.622-5.449l3.212-1.04h-4.377v-3.37h1.07c-0.535-0.63-1.858-1.764-2.614-2.268v1.197h-9.7V9.61h9.7
				v1.512c2.708-1.858,3.055-4.346,3.055-6.456V0.918h10.55v7.055c0,0.882,0.063,0.977,0.41,0.977h0.787
				c0.409,0,0.535-0.409,0.567-3.149c0.693,0.535,2.142,1.071,3.055,1.323c-0.315,3.905-1.134,5.007-3.244,5.007h-1.827
				c-2.52,0-3.244-0.976-3.244-4.094V4.225h-3.527v0.536c0,2.96-0.63,6.551-3.905,8.787h11.086l0.63-0.158L210.353,14.303z
				 M193.504,16.728h-9.7v-2.803h9.7V16.728z M193.441,3.847h-9.511V1.013h9.511V3.847z M190.228,21.232h-3.338v3.622h3.338V21.232z
				 M199.519,16.917c0.756,1.575,1.795,2.992,3.055,4.252c1.228-1.229,2.205-2.646,2.96-4.252H199.519z"/>
			
				<linearGradient id="SVGID_00000060711895811332118160000001065024165596136588_" gradientUnits="userSpaceOnUse" x1="58.6853" y1="14.7755" x2="243.2385" y2="14.7755">
				<stop  offset="0" style="stop-color:#7BC3D8"/>
				<stop  offset="1" style="stop-color:#60A2B5"/>
			</linearGradient>
			<path style="fill:url(#SVGID_00000060711895811332118160000001065024165596136588_);" d="M243.239,11.91h-16.912v3.716
				c0,4.094-0.473,10.109-3.149,13.92c-0.535-0.63-1.921-1.827-2.646-2.268v2.142h-3.559V13.673
				c-0.63,0.945-1.292,1.827-1.953,2.583c-0.283-0.882-1.196-3.055-1.795-4.031c2.52-2.929,4.85-7.527,6.236-12.157l3.464,1.04
				c-0.661,2.016-1.48,4.094-2.394,6.109v19.936c2.205-3.37,2.394-8.125,2.394-11.59V8.697h20.313V11.91z M227.208,2.524V0.225
				h3.464v2.299h4.661V0.225h3.527v2.299h4.22v3.212h-4.22v2.11h-3.527v-2.11h-4.661v2.11h-3.464v-2.11h-4.44V2.524H227.208z
				 M242.514,26.271c0,1.417-0.189,2.173-1.071,2.677c-0.851,0.472-1.984,0.535-3.622,0.504c-0.062-0.851-0.44-2.016-0.818-2.835
				c0.882,0.032,1.669,0.032,1.984,0c0.284,0,0.346-0.062,0.346-0.378v-1.638h-2.992v4.725h-2.96v-4.725h-2.834v4.787h-3.118V13.484
				h15.085V26.271z M230.547,16.193v1.795h2.834v-1.795H230.547z M233.381,22.145v-1.732h-2.834v1.732H233.381z M236.342,16.193
				v1.795h2.992v-1.795H236.342z M239.333,22.145v-1.732h-2.992v1.732H239.333z"/>
		</g>
	</g>
	<g>
		<path style="fill:#419DB6;" d="M62.122,39.216h5.073v0.948h-3.958v2.758h3.334v0.947h-3.334v3.203h4.089v0.947h-5.205V39.216z"/>
		<path style="fill:#419DB6;" d="M73.76,48.451l0.048-1.187c-0.528,0.516-1.211,0.911-1.967,0.911c-1.631,0-2.687-1.235-2.687-3.406
			c0-2.111,1.331-3.43,2.818-3.43c0.755,0,1.295,0.276,1.859,0.792h0.036l0.108-0.624h0.863v9.259H73.76V48.451z M73.76,46.364
			v-3.418c-0.564-0.492-1.056-0.684-1.595-0.684c-1.056,0-1.883,1.007-1.883,2.495c0,1.571,0.647,2.507,1.799,2.507
			C72.681,47.264,73.209,46.964,73.76,46.364z"/>
		<path style="fill:#419DB6;" d="M77.519,45.633v-4.125h1.091v3.994c0,1.211,0.36,1.727,1.223,1.727c0.672,0,1.14-0.324,1.763-1.104
			v-4.617h1.091v6.512h-0.911L81.693,47h-0.036c-0.612,0.708-1.259,1.175-2.159,1.175C78.13,48.175,77.519,47.288,77.519,45.633z"/>
		<path style="fill:#419DB6;" d="M85.247,39.432c0-0.419,0.3-0.708,0.732-0.708c0.432,0,0.731,0.288,0.731,0.708
			c0,0.444-0.3,0.732-0.731,0.732C85.547,40.164,85.247,39.876,85.247,39.432z M85.427,41.507h1.091v6.512h-1.091V41.507z"/>
		<path style="fill:#419DB6;" d="M89.267,41.507h0.899l0.096,0.743h0.036c0.588-0.479,1.319-0.911,2.075-0.911
			c1.679,0,2.591,1.319,2.591,3.322c0,2.231-1.332,3.514-2.831,3.514c-0.587,0-1.211-0.276-1.799-0.755l0.024,1.139v2.207h-1.091
			V41.507z M93.824,44.673c0-1.439-0.48-2.411-1.715-2.411c-0.552,0-1.115,0.312-1.751,0.899v3.418
			c0.587,0.504,1.164,0.684,1.595,0.684C93.032,47.264,93.824,46.292,93.824,44.673z"/>
		<path style="fill:#419DB6;" d="M97.247,41.507h0.899l0.096,0.947h0.036c0.564-0.624,1.248-1.115,2.027-1.115
			c0.996,0,1.535,0.479,1.799,1.247c0.671-0.731,1.355-1.247,2.146-1.247c1.343,0,1.979,0.887,1.979,2.554v4.126h-1.091v-3.982
			c0-1.223-0.384-1.739-1.211-1.739c-0.504,0-1.031,0.324-1.643,0.995v4.726h-1.091v-3.982c0-1.223-0.384-1.739-1.211-1.739
			c-0.492,0-1.043,0.324-1.643,0.995v4.726h-1.091V41.507z"/>
		<path style="fill:#419DB6;" d="M108.407,44.769c0-2.111,1.427-3.43,2.938-3.43c1.655,0,2.591,1.199,2.591,3.058
			c0,0.24-0.024,0.468-0.048,0.624h-4.39c0.072,1.392,0.923,2.279,2.159,2.279c0.636,0,1.151-0.192,1.631-0.516l0.396,0.72
			c-0.576,0.372-1.271,0.671-2.159,0.671C109.798,48.175,108.407,46.916,108.407,44.769z M112.976,44.229
			c0-1.307-0.6-2.015-1.619-2.015c-0.923,0-1.739,0.744-1.871,2.015H112.976z"/>
		<path style="fill:#419DB6;" d="M116.086,41.507h0.899l0.096,0.935h0.036c0.624-0.611,1.295-1.103,2.183-1.103
			c1.368,0,1.991,0.887,1.991,2.554v4.126H120.2v-3.982c0-1.223-0.372-1.739-1.235-1.739c-0.672,0-1.127,0.335-1.787,0.995v4.726
			h-1.091V41.507z"/>
		<path style="fill:#419DB6;" d="M124.15,46.005v-3.61h-0.972v-0.828l1.02-0.06l0.132-1.835h0.912v1.835h1.763v0.887h-1.763v3.634
			c0,0.803,0.252,1.259,1.007,1.259c0.228,0,0.528-0.084,0.744-0.168l0.216,0.815c-0.372,0.12-0.804,0.24-1.199,0.24
			C124.618,48.175,124.15,47.3,124.15,46.005z"/>
		<path style="fill:#419DB6;" d="M136.187,44.769c0-2.171,1.427-3.43,3.022-3.43c1.595,0,3.022,1.259,3.022,3.43
			c0,2.159-1.427,3.406-3.022,3.406C137.614,48.175,136.187,46.928,136.187,44.769z M141.104,44.769c0-1.5-0.768-2.519-1.895-2.519
			c-1.127,0-1.883,1.02-1.883,2.519c0,1.499,0.756,2.495,1.883,2.495C140.336,47.264,141.104,46.268,141.104,44.769z"/>
		<path style="fill:#419DB6;" d="M144.91,42.394h-0.887v-0.828l0.887-0.06v-1.043c0-1.319,0.6-2.147,1.895-2.147
			c0.396,0,0.792,0.084,1.091,0.216l-0.24,0.828c-0.24-0.108-0.504-0.168-0.731-0.168c-0.624,0-0.924,0.444-0.924,1.283v1.032h1.379
			v0.887h-1.379v5.625h-1.091V42.394z"/>
		<path style="fill:#419DB6;" d="M156.094,44.769c0-2.171,1.427-3.43,3.022-3.43c1.595,0,3.022,1.259,3.022,3.43
			c0,2.159-1.427,3.406-3.022,3.406C157.522,48.175,156.094,46.928,156.094,44.769z M161.011,44.769c0-1.5-0.768-2.519-1.895-2.519
			c-1.127,0-1.883,1.02-1.883,2.519c0,1.499,0.756,2.495,1.883,2.495C160.244,47.264,161.011,46.268,161.011,44.769z"/>
		<path style="fill:#419DB6;" d="M164.314,45.633v-4.125h1.091v3.994c0,1.211,0.36,1.727,1.223,1.727
			c0.672,0,1.14-0.324,1.763-1.104v-4.617h1.091v6.512h-0.912L168.488,47h-0.036c-0.612,0.708-1.259,1.175-2.159,1.175
			C164.926,48.175,164.314,47.288,164.314,45.633z"/>
		<path style="fill:#419DB6;" d="M172.222,41.507h0.899l0.096,1.187h0.036c0.456-0.828,1.115-1.355,1.847-1.355
			c0.288,0,0.492,0.036,0.695,0.144l-0.204,0.959c-0.216-0.084-0.372-0.108-0.636-0.108c-0.54,0-1.211,0.384-1.643,1.5v4.186h-1.091
			V41.507z"/>
		<path style="fill:#419DB6;" d="M184.582,44.769c0-2.171,1.475-3.43,3.142-3.43c0.852,0,1.439,0.36,1.907,0.768l-0.564,0.719
			c-0.384-0.335-0.78-0.576-1.295-0.576c-1.187,0-2.051,1.02-2.051,2.519c0,1.499,0.815,2.495,2.015,2.495
			c0.6,0,1.127-0.276,1.535-0.648l0.479,0.731c-0.587,0.528-1.331,0.828-2.111,0.828C185.913,48.175,184.582,46.928,184.582,44.769z
			"/>
		<path style="fill:#419DB6;" d="M191.721,46.724v-8.251h1.091v8.324c0,0.335,0.144,0.468,0.312,0.468c0.06,0,0.108,0,0.228-0.024
			l0.156,0.84c-0.156,0.06-0.336,0.096-0.636,0.096C192.057,48.175,191.721,47.648,191.721,46.724z"/>
		<path style="fill:#419DB6;" d="M195.501,39.432c0-0.419,0.3-0.708,0.732-0.708c0.432,0,0.731,0.288,0.731,0.708
			c0,0.444-0.3,0.732-0.731,0.732C195.801,40.164,195.501,39.876,195.501,39.432z M195.681,41.507h1.091v6.512h-1.091V41.507z"/>
		<path style="fill:#419DB6;" d="M199.521,41.507h0.899l0.096,0.935h0.036c0.624-0.611,1.295-1.103,2.183-1.103
			c1.367,0,1.991,0.887,1.991,2.554v4.126h-1.091v-3.982c0-1.223-0.372-1.739-1.235-1.739c-0.672,0-1.127,0.335-1.787,0.995v4.726
			h-1.091V41.507z"/>
		<path style="fill:#419DB6;" d="M207.213,39.432c0-0.419,0.3-0.708,0.732-0.708c0.432,0,0.731,0.288,0.731,0.708
			c0,0.444-0.3,0.732-0.731,0.732C207.513,40.164,207.213,39.876,207.213,39.432z M207.393,41.507h1.091v6.512h-1.091V41.507z"/>
		<path style="fill:#419DB6;" d="M210.741,44.769c0-2.171,1.475-3.43,3.142-3.43c0.852,0,1.439,0.36,1.907,0.768l-0.563,0.719
			c-0.384-0.335-0.779-0.576-1.295-0.576c-1.187,0-2.051,1.02-2.051,2.519c0,1.499,0.815,2.495,2.015,2.495
			c0.6,0,1.127-0.276,1.535-0.648l0.479,0.731c-0.587,0.528-1.331,0.828-2.111,0.828C212.072,48.175,210.741,46.928,210.741,44.769z
			"/>
	</g>
	<line style="fill:none;stroke:#419DB6;stroke-width:0.75;stroke-miterlimit:10;" x1="0" y1="17.787" x2="44.959" y2="17.787"/>
</g>
</svg>
