<?xml version="1.0" encoding="iso-8859-1"?>
<!-- Generator: Adobe Illustrator 27.3.1, SVG Export Plug-In . SVG Version: 6.00 Build 0)  -->
<svg version="1.1" id="&#x30EC;&#x30A4;&#x30E4;&#x30FC;_1"
	 xmlns="http://www.w3.org/2000/svg" xmlns:xlink="http://www.w3.org/1999/xlink" x="0px" y="0px" viewBox="0 0 245.913 48.729"
	 style="enable-background:new 0 0 245.913 48.729;" xml:space="preserve">
<g>
	<g>
		<g>
			<linearGradient id="SVGID_1_" gradientUnits="userSpaceOnUse" x1="58.6853" y1="14.8896" x2="242.987" y2="14.8896">
				<stop  offset="0" style="stop-color:#7BC3D8"/>
				<stop  offset="1" style="stop-color:#60A2B5"/>
			</linearGradient>
			<path style="fill:url(#SVGID_1_);" d="M62.371,9.989c-0.599-1.984-2.142-5.039-3.686-7.243l3.434-1.354
				c1.638,2.173,3.181,5.07,3.873,7.086L62.371,9.989z M73.11,11.029h10.015v18.55h-3.999v-1.292H58.717v-3.716h20.408v-3.275
				H60.512v-3.622h18.613v-2.897H59.441v-3.748h9.543V0.132h4.126V11.029z M83.661,2.337c-1.386,2.803-2.992,5.795-4.347,7.779
				l-3.275-1.134c1.229-2.173,2.677-5.417,3.433-7.873L83.661,2.337z"/>
			
				<linearGradient id="SVGID_00000018950266627462460090000008134144590035380364_" gradientUnits="userSpaceOnUse" x1="58.6853" y1="14.8896" x2="242.987" y2="14.8896">
				<stop  offset="0" style="stop-color:#7BC3D8"/>
				<stop  offset="1" style="stop-color:#60A2B5"/>
			</linearGradient>
			<path style="fill:url(#SVGID_00000018950266627462460090000008134144590035380364_);" d="M116.956,28.288h-23.81v1.323h-3.748
				V1.612h26.833v3.59H99.193l2.866,0.725c-0.221,0.599-0.504,1.165-0.819,1.732h12.881v3.118h-7.307v2.331h8.692v3.212h-8.282
				c1.669,2.457,4.661,3.968,8.85,4.535c-0.819,0.756-1.795,2.142-2.236,3.118c-3.905-0.787-6.646-2.425-8.566-4.913
				c-1.448,1.953-4.094,3.748-8.629,5.039c-0.473-0.787-1.544-2.078-2.3-2.771c5.354-1.26,7.496-3.118,8.314-5.007h-8.03v-3.212
				h8.472v-2.331h-3.905c-0.599,0.756-1.229,1.417-1.858,1.984c-0.725-0.535-2.268-1.417-3.118-1.826
				c1.858-1.354,3.465-3.559,4.283-5.732h-5.354v19.526h23.81V28.288z"/>
			
				<linearGradient id="SVGID_00000071528095053516410850000006736497536216867748_" gradientUnits="userSpaceOnUse" x1="58.6853" y1="14.8896" x2="242.987" y2="14.8896">
				<stop  offset="0" style="stop-color:#7BC3D8"/>
				<stop  offset="1" style="stop-color:#60A2B5"/>
			</linearGradient>
			<path style="fill:url(#SVGID_00000071528095053516410850000006736497536216867748_);" d="M130.441,2.777
				c-0.819,2.677-1.858,6.11-2.74,8.566c1.89,2.394,2.299,4.504,2.299,6.33c0,2.016-0.409,3.339-1.386,4.031
				c-0.504,0.347-1.102,0.536-1.826,0.662c-0.535,0.063-1.291,0.094-2.016,0.063c-0.031-0.882-0.315-2.299-0.819-3.181
				c0.567,0.031,0.977,0.031,1.386,0.031c0.347-0.031,0.63-0.095,0.882-0.283c0.347-0.252,0.473-0.882,0.473-1.764
				c0-1.449-0.409-3.401-2.173-5.512c0.63-1.984,1.291-4.724,1.795-6.866h-2.456v24.723h-3.244V1.518h6.834l0.535-0.157
				L130.441,2.777z M145.054,25.988c0.504,0,0.599-0.472,0.661-3.685c0.693,0.567,2.205,1.165,3.118,1.386
				c-0.315,4.409-1.134,5.606-3.37,5.606h-2.11c-2.739,0-3.338-1.071-3.338-4.283v-6.834h-2.331c-0.378,5.701-1.7,9.322-7.842,11.37
				c-0.314-0.882-1.229-2.268-1.984-2.929c5.039-1.512,5.984-4.062,6.299-8.44h-3.464V14.84h17.542v3.338h-4.724v6.803
				c0,0.914,0.062,1.008,0.504,1.008H145.054z M137.244,3.596V0.289h3.622v3.307h7.526v6.173h-2.425v2.803h-13.416V9.801h-2.331
				V3.596H137.244z M144.96,6.777h-11.4V9.36h11.4V6.777z"/>
			
				<linearGradient id="SVGID_00000026145736207632674410000007772192597067735440_" gradientUnits="userSpaceOnUse" x1="58.6853" y1="14.8896" x2="242.987" y2="14.8896">
				<stop  offset="0" style="stop-color:#7BC3D8"/>
				<stop  offset="1" style="stop-color:#60A2B5"/>
			</linearGradient>
			<path style="fill:url(#SVGID_00000026145736207632674410000007772192597067735440_);" d="M166.98,28.319l-2.362-3.748
				c1.197-0.126,2.079-0.315,2.929-0.504c4.031-0.945,7.181-3.842,7.181-8.44c0-4.346-2.361-7.59-6.613-8.314
				c-0.441,2.677-0.977,5.574-1.89,8.535c-1.89,6.361-4.599,10.267-8.031,10.267c-3.496,0-6.394-3.842-6.394-9.165
				c0-7.275,6.299-13.479,14.456-13.479c7.811,0,12.724,5.417,12.724,12.283C178.979,22.399,174.917,27.091,166.98,28.319z
				 M158.319,21.265c1.323,0,2.551-1.984,3.843-6.236c0.724-2.33,1.322-5.007,1.669-7.621c-5.196,1.07-8,5.669-8,9.133
				C155.831,19.721,157.091,21.265,158.319,21.265z"/>
			
				<linearGradient id="SVGID_00000023263659093051087240000002469866708435309238_" gradientUnits="userSpaceOnUse" x1="58.6853" y1="14.8896" x2="242.987" y2="14.8896">
				<stop  offset="0" style="stop-color:#7BC3D8"/>
				<stop  offset="1" style="stop-color:#60A2B5"/>
			</linearGradient>
			<path style="fill:url(#SVGID_00000023263659093051087240000002469866708435309238_);" d="M191.709,19.658
				c-0.378-0.913-1.039-2.331-1.732-3.685v13.574h-3.401V17.769c-0.818,2.425-1.795,4.63-2.865,6.204
				c-0.347-1.039-1.103-2.456-1.638-3.307c1.764-2.457,3.433-6.834,4.22-10.551h-3.496V6.652h3.779V0.163h3.401v6.488h3.149v3.464
				h-3.149v1.386c0.851,1.166,3.118,4.63,3.653,5.48L191.709,19.658z M200.306,23.91c-2.204,1.291-4.661,2.677-6.677,3.779
				l-1.605-3.149c1.857-0.851,4.629-2.268,7.307-3.653L200.306,23.91z M211.425,17.674c-1.323,1.386-2.93,2.866-4.157,3.874
				c1.354,1.543,2.991,2.771,4.913,3.559c-0.788,0.693-1.827,2.079-2.362,3.023c-2.299-1.26-4.157-3.181-5.574-5.543v3.275
				c0,1.701-0.315,2.583-1.323,3.149c-1.039,0.536-2.52,0.63-4.472,0.63c-0.126-0.976-0.536-2.425-1.008-3.338
				c1.07,0.062,2.299,0.062,2.677,0.062s0.504-0.157,0.504-0.535V15.092h-7.401v-3.055h7.401v-1.386h-5.952V7.848h5.952v-1.26
				h-6.803V3.659h3.212c-0.314-0.819-0.787-1.701-1.228-2.457l2.96-1.008c0.725,1.102,1.48,2.52,1.795,3.464h3.905
				c0.473-1.071,1.103-2.52,1.418-3.527l3.716,0.851c-0.566,0.944-1.134,1.89-1.638,2.677h3.055v2.929h-6.771v1.26h6.109v2.803
				h-6.109v1.386h7.338v3.055h-7.338v1.228c0.346,0.976,0.787,1.89,1.291,2.771c1.103-1.04,2.33-2.362,3.055-3.401L211.425,17.674z
				 M196.37,15.784c1.165,1.134,2.488,2.74,3.118,3.811l-2.677,1.89c-0.567-1.102-1.858-2.803-2.992-4.031L196.37,15.784z"/>
			
				<linearGradient id="SVGID_00000065782145018115258790000010913397139680543877_" gradientUnits="userSpaceOnUse" x1="58.6853" y1="14.8896" x2="242.987" y2="14.8896">
				<stop  offset="0" style="stop-color:#7BC3D8"/>
				<stop  offset="1" style="stop-color:#60A2B5"/>
			</linearGradient>
			<path style="fill:url(#SVGID_00000065782145018115258790000010913397139680543877_);" d="M242.987,17.643h-12.472v7.559
				c0,2.173-0.473,3.181-1.984,3.779c-1.479,0.599-3.685,0.693-6.551,0.661c-0.252-1.102-0.976-2.834-1.574-3.874
				c2.173,0.094,4.598,0.094,5.322,0.094c0.661,0,0.882-0.157,0.882-0.724v-7.496h-12.503v-3.748h12.503V8.919h1.858
				c1.543-0.914,3.149-2.047,4.504-3.149h-15.59V2.085h19.495l0.85-0.189l2.866,2.142c-2.677,2.771-6.52,5.795-10.078,7.842v2.016
				h12.472V17.643z"/>
		</g>
	</g>
	<g>
		<path style="fill:#419DB6;" d="M63.945,39.343h1.235l2.986,8.803h-1.175l-0.84-2.687h-3.215l-0.851,2.687h-1.128L63.945,39.343z
			 M63.214,44.572h2.662l-0.419-1.343c-0.324-0.995-0.601-1.955-0.888-2.974h-0.048c-0.276,1.031-0.564,1.979-0.876,2.974
			L63.214,44.572z"/>
		<path style="fill:#419DB6;" d="M69.359,44.897c0-2.171,1.475-3.43,3.142-3.43c0.852,0,1.439,0.36,1.907,0.768l-0.563,0.719
			c-0.384-0.335-0.78-0.576-1.296-0.576c-1.187,0-2.051,1.02-2.051,2.519c0,1.499,0.815,2.495,2.016,2.495
			c0.6,0,1.127-0.276,1.535-0.648l0.479,0.731c-0.588,0.528-1.331,0.828-2.111,0.828C70.69,48.302,69.359,47.055,69.359,44.897z"/>
		<path style="fill:#419DB6;" d="M76.69,46.132v-3.61h-0.972v-0.828l1.02-0.06l0.132-1.835h0.912v1.835h1.763v0.887h-1.763v3.634
			c0,0.803,0.252,1.259,1.007,1.259c0.229,0,0.528-0.084,0.744-0.168l0.216,0.815c-0.372,0.12-0.804,0.24-1.199,0.24
			C77.158,48.302,76.69,47.427,76.69,46.132z"/>
		<path style="fill:#419DB6;" d="M81.478,45.76v-4.125h1.092v3.994c0,1.211,0.359,1.727,1.223,1.727c0.672,0,1.14-0.324,1.764-1.104
			v-4.617h1.091v6.512h-0.911l-0.084-1.02h-0.036c-0.611,0.708-1.259,1.175-2.158,1.175C82.09,48.302,81.478,47.415,81.478,45.76z"
			/>
		<path style="fill:#419DB6;" d="M88.979,46.456c0-1.416,1.235-2.123,4.005-2.435c0-0.839-0.275-1.643-1.343-1.643
			c-0.756,0-1.439,0.348-1.955,0.696l-0.432-0.755c0.6-0.384,1.523-0.852,2.566-0.852c1.583,0,2.255,1.067,2.255,2.674v4.006h-0.899
			l-0.096-0.78h-0.036c-0.624,0.516-1.355,0.936-2.159,0.936C89.795,48.302,88.979,47.631,88.979,46.456z M92.984,46.564V44.74
			c-2.194,0.264-2.938,0.804-2.938,1.643c0,0.744,0.503,1.043,1.151,1.043C91.833,47.427,92.349,47.127,92.984,46.564z"/>
		<path style="fill:#419DB6;" d="M96.695,46.851V38.6h1.091v8.324c0,0.335,0.145,0.468,0.312,0.468c0.06,0,0.107,0,0.228-0.024
			l0.156,0.84c-0.156,0.06-0.336,0.096-0.636,0.096C97.03,48.302,96.695,47.775,96.695,46.851z"/>
		<path style="fill:#419DB6;" d="M103.39,44.897c0-2.171,1.476-3.43,3.143-3.43c0.852,0,1.439,0.36,1.906,0.768l-0.563,0.719
			c-0.384-0.335-0.779-0.576-1.295-0.576c-1.188,0-2.051,1.02-2.051,2.519c0,1.499,0.815,2.495,2.015,2.495
			c0.6,0,1.127-0.276,1.535-0.648l0.479,0.731c-0.587,0.528-1.331,0.828-2.11,0.828C104.721,48.302,103.39,47.055,103.39,44.897z"/>
		<path style="fill:#419DB6;" d="M110.039,44.897c0-2.171,1.427-3.43,3.021-3.43c1.596,0,3.022,1.259,3.022,3.43
			c0,2.159-1.427,3.406-3.022,3.406C111.466,48.302,110.039,47.055,110.039,44.897z M114.956,44.897c0-1.5-0.768-2.519-1.896-2.519
			c-1.127,0-1.883,1.02-1.883,2.519c0,1.499,0.756,2.495,1.883,2.495C114.188,47.391,114.956,46.396,114.956,44.897z"/>
		<path style="fill:#419DB6;" d="M118.342,41.634h0.899l0.096,0.935h0.036c0.623-0.611,1.295-1.103,2.183-1.103
			c1.367,0,1.991,0.887,1.991,2.554v4.126h-1.092v-3.982c0-1.223-0.372-1.739-1.235-1.739c-0.672,0-1.127,0.335-1.787,0.995v4.726
			h-1.091V41.634z"/>
		<path style="fill:#419DB6;" d="M125.747,44.897c0-2.111,1.331-3.43,2.818-3.43c0.768,0,1.259,0.288,1.835,0.768l-0.048-1.127V38.6
			h1.079v9.547h-0.888l-0.096-0.768h-0.036c-0.516,0.504-1.199,0.923-1.979,0.923C126.801,48.302,125.747,47.067,125.747,44.897z
			 M130.352,46.491v-3.418c-0.564-0.492-1.056-0.684-1.596-0.684c-1.056,0-1.883,1.007-1.883,2.495c0,1.571,0.647,2.507,1.799,2.507
			C129.272,47.391,129.8,47.091,130.352,46.491z"/>
		<path style="fill:#419DB6;" d="M134.014,39.559c0-0.419,0.3-0.708,0.731-0.708s0.731,0.288,0.731,0.708
			c0,0.444-0.3,0.732-0.731,0.732S134.014,40.003,134.014,39.559z M134.194,41.634h1.092v6.512h-1.092V41.634z"/>
		<path style="fill:#419DB6;" d="M138.226,46.132v-3.61h-0.972v-0.828l1.02-0.06l0.132-1.835h0.911v1.835h1.764v0.887h-1.764v3.634
			c0,0.803,0.252,1.259,1.008,1.259c0.228,0,0.527-0.084,0.743-0.168l0.216,0.815c-0.371,0.12-0.804,0.24-1.199,0.24
			C138.694,48.302,138.226,47.427,138.226,46.132z"/>
		<path style="fill:#419DB6;" d="M142.918,39.559c0-0.419,0.3-0.708,0.732-0.708c0.432,0,0.731,0.288,0.731,0.708
			c0,0.444-0.3,0.732-0.731,0.732C143.217,40.291,142.918,40.003,142.918,39.559z M143.098,41.634h1.091v6.512h-1.091V41.634z"/>
		<path style="fill:#419DB6;" d="M146.446,44.897c0-2.171,1.428-3.43,3.022-3.43c1.595,0,3.022,1.259,3.022,3.43
			c0,2.159-1.428,3.406-3.022,3.406C147.874,48.302,146.446,47.055,146.446,44.897z M151.363,44.897c0-1.5-0.768-2.519-1.895-2.519
			s-1.883,1.02-1.883,2.519c0,1.499,0.756,2.495,1.883,2.495S151.363,46.396,151.363,44.897z"/>
		<path style="fill:#419DB6;" d="M154.75,41.634h0.899l0.096,0.935h0.036c0.624-0.611,1.296-1.103,2.183-1.103
			c1.368,0,1.991,0.887,1.991,2.554v4.126h-1.091v-3.982c0-1.223-0.372-1.739-1.235-1.739c-0.672,0-1.128,0.335-1.787,0.995v4.726
			h-1.092V41.634z"/>
		<path style="fill:#419DB6;" d="M168.587,44.897c0-2.171,1.427-3.43,3.021-3.43c1.596,0,3.022,1.259,3.022,3.43
			c0,2.159-1.427,3.406-3.022,3.406C170.013,48.302,168.587,47.055,168.587,44.897z M173.504,44.897c0-1.5-0.768-2.519-1.896-2.519
			c-1.127,0-1.883,1.02-1.883,2.519c0,1.499,0.756,2.495,1.883,2.495C172.736,47.391,173.504,46.396,173.504,44.897z"/>
		<path style="fill:#419DB6;" d="M177.069,42.522h-0.887v-0.828l0.887-0.06v-1.043c0-1.319,0.6-2.147,1.896-2.147
			c0.396,0,0.791,0.084,1.091,0.216l-0.239,0.828c-0.24-0.108-0.504-0.168-0.731-0.168c-0.624,0-0.924,0.444-0.924,1.283v1.032
			h1.379v0.887h-1.379v5.625h-1.092V42.522z"/>
		<path style="fill:#419DB6;" d="M187.294,44.897c0-2.171,1.428-3.43,3.022-3.43s3.022,1.259,3.022,3.43
			c0,2.159-1.428,3.406-3.022,3.406S187.294,47.055,187.294,44.897z M192.211,44.897c0-1.5-0.768-2.519-1.895-2.519
			s-1.883,1.02-1.883,2.519c0,1.499,0.756,2.495,1.883,2.495S192.211,46.396,192.211,44.897z"/>
		<path style="fill:#419DB6;" d="M195.513,45.76v-4.125h1.092v3.994c0,1.211,0.359,1.727,1.223,1.727
			c0.672,0,1.14-0.324,1.764-1.104v-4.617h1.091v6.512h-0.911l-0.084-1.02h-0.036c-0.611,0.708-1.259,1.175-2.158,1.175
			C196.125,48.302,195.513,47.415,195.513,45.76z"/>
		<path style="fill:#419DB6;" d="M203.422,41.634h0.899l0.096,1.187h0.036c0.456-0.828,1.115-1.355,1.848-1.355
			c0.287,0,0.491,0.036,0.695,0.144l-0.204,0.959c-0.216-0.084-0.372-0.108-0.636-0.108c-0.539,0-1.211,0.384-1.643,1.5v4.186
			h-1.092V41.634z"/>
		<path style="fill:#419DB6;" d="M214.582,44.897c0-2.171,1.476-3.43,3.143-3.43c0.852,0,1.439,0.36,1.906,0.768l-0.563,0.719
			c-0.384-0.335-0.779-0.576-1.295-0.576c-1.188,0-2.051,1.02-2.051,2.519c0,1.499,0.815,2.495,2.015,2.495
			c0.6,0,1.127-0.276,1.535-0.648l0.479,0.731c-0.587,0.528-1.331,0.828-2.11,0.828C215.913,48.302,214.582,47.055,214.582,44.897z"
			/>
		<path style="fill:#419DB6;" d="M221.721,46.851V38.6h1.092v8.324c0,0.335,0.144,0.468,0.312,0.468c0.06,0,0.108,0,0.228-0.024
			l0.156,0.84c-0.156,0.06-0.336,0.096-0.636,0.096C222.057,48.302,221.721,47.775,221.721,46.851z"/>
		<path style="fill:#419DB6;" d="M225.502,39.559c0-0.419,0.3-0.708,0.731-0.708s0.731,0.288,0.731,0.708
			c0,0.444-0.3,0.732-0.731,0.732S225.502,40.003,225.502,39.559z M225.681,41.634h1.092v6.512h-1.092V41.634z"/>
		<path style="fill:#419DB6;" d="M229.521,41.634h0.899l0.096,0.935h0.036c0.624-0.611,1.296-1.103,2.183-1.103
			c1.368,0,1.991,0.887,1.991,2.554v4.126h-1.091v-3.982c0-1.223-0.372-1.739-1.235-1.739c-0.672,0-1.128,0.335-1.787,0.995v4.726
			h-1.092V41.634z"/>
		<path style="fill:#419DB6;" d="M237.214,39.559c0-0.419,0.3-0.708,0.731-0.708s0.731,0.288,0.731,0.708
			c0,0.444-0.3,0.732-0.731,0.732S237.214,40.003,237.214,39.559z M237.393,41.634h1.092v6.512h-1.092V41.634z"/>
		<path style="fill:#419DB6;" d="M240.741,44.897c0-2.171,1.476-3.43,3.143-3.43c0.852,0,1.439,0.36,1.906,0.768l-0.563,0.719
			c-0.384-0.335-0.779-0.576-1.295-0.576c-1.188,0-2.051,1.02-2.051,2.519c0,1.499,0.815,2.495,2.015,2.495
			c0.6,0,1.127-0.276,1.535-0.648l0.479,0.731c-0.587,0.528-1.331,0.828-2.11,0.828C242.072,48.302,240.741,47.055,240.741,44.897z"
			/>
	</g>
	<line style="fill:none;stroke:#419DB6;stroke-width:0.75;stroke-miterlimit:10;" x1="0" y1="17.914" x2="44.959" y2="17.914"/>
</g>
</svg>
