<?xml version="1.0" encoding="UTF-8" standalone="no"?>
<!-- Created with Inkscape (http://www.inkscape.org/) -->

<svg
   xmlns:dc="http://purl.org/dc/elements/1.1/"
   xmlns:cc="http://creativecommons.org/ns#"
   xmlns:rdf="http://www.w3.org/1999/02/22-rdf-syntax-ns#"
   xmlns:svg="http://www.w3.org/2000/svg"
   xmlns="http://www.w3.org/2000/svg"
   xmlns:xlink="http://www.w3.org/1999/xlink"
   xmlns:sodipodi="http://sodipodi.sourceforge.net/DTD/sodipodi-0.dtd"
   xmlns:inkscape="http://www.inkscape.org/namespaces/inkscape"
   width="207.32635"
   height="53.158279"
   id="svg7180"
   version="1.1"
   inkscape:version="0.48.2 r9819"
   sodipodi:docname="新規ドキュメント 4">
  <defs
     id="defs3">
    <linearGradient
       gradientUnits="userSpaceOnUse"
       y2="256"
       x2="512.00171"
       y1="256"
       x1="-0.0017208607"
       id="linearGradient4905"
       xlink:href="#linearGradient5730"
       inkscape:collect="always" />
    <linearGradient
       id="linearGradient5730">
      <stop
         id="stop5732"
         offset="0"
         style="stop-color:#5eb0c5;stop-opacity:1;" />
      <stop
         id="stop5734"
         offset="1"
         style="stop-color:#a3dbea;stop-opacity:1;" />
    </linearGradient>
    <linearGradient
       y2="256"
       x2="512.00171"
       y1="256"
       x1="-0.0017208607"
       gradientUnits="userSpaceOnUse"
       id="linearGradient4474"
       xlink:href="#linearGradient5730"
       inkscape:collect="always" />
    <linearGradient
       id="linearGradient7170">
      <stop
         id="stop7172"
         offset="0"
         style="stop-color:#5eb0c5;stop-opacity:1;" />
      <stop
         id="stop7174"
         offset="1"
         style="stop-color:#a3dbea;stop-opacity:1;" />
    </linearGradient>
    <linearGradient
       y2="256"
       x2="512.00171"
       y1="256"
       x1="-0.0017208607"
       gradientUnits="userSpaceOnUse"
       id="linearGradient7178"
       xlink:href="#linearGradient5730"
       inkscape:collect="always" />
    <linearGradient
       gradientUnits="userSpaceOnUse"
       y2="256"
       x2="512.00171"
       y1="256"
       x1="-0.0017208607"
       id="linearGradient4905-6"
       xlink:href="#linearGradient5730-5"
       inkscape:collect="always" />
    <linearGradient
       id="linearGradient5730-5">
      <stop
         id="stop5732-9"
         offset="0"
         style="stop-color:#5eb0c5;stop-opacity:1;" />
      <stop
         id="stop5734-7"
         offset="1"
         style="stop-color:#a3dbea;stop-opacity:1;" />
    </linearGradient>
    <linearGradient
       y2="256"
       x2="512.00171"
       y1="256"
       x1="-0.0017208607"
       gradientUnits="userSpaceOnUse"
       id="linearGradient4474-2"
       xlink:href="#linearGradient5730-5"
       inkscape:collect="always" />
    <linearGradient
       id="linearGradient7251">
      <stop
         id="stop7253"
         offset="0"
         style="stop-color:#5eb0c5;stop-opacity:1;" />
      <stop
         id="stop7255"
         offset="1"
         style="stop-color:#a3dbea;stop-opacity:1;" />
    </linearGradient>
    <linearGradient
       y2="256"
       x2="512.00171"
       y1="256"
       x1="-0.0017208607"
       gradientUnits="userSpaceOnUse"
       id="linearGradient7272"
       xlink:href="#linearGradient5730-5"
       inkscape:collect="always" />
  </defs>
  <sodipodi:namedview
     inkscape:document-units="mm"
     id="base"
     pagecolor="#ffffff"
     bordercolor="#666666"
     borderopacity="1.0"
     inkscape:pageopacity="0.0"
     inkscape:pageshadow="2"
     inkscape:zoom="1.4"
     inkscape:cx="188.09584"
     inkscape:cy="-45.259669"
     inkscape:current-layer="layer1"
     showgrid="false"
     units="mm"
     fit-margin-top="0"
     fit-margin-left="0"
     fit-margin-right="0"
     fit-margin-bottom="0"
     inkscape:window-width="651"
     inkscape:window-height="455"
     inkscape:window-x="104"
     inkscape:window-y="104"
     inkscape:window-maximized="0" />
  <metadata
     id="metadata4">
    <rdf:RDF>
      <cc:Work
         rdf:about="">
        <dc:format>image/svg+xml</dc:format>
        <dc:type
           rdf:resource="http://purl.org/dc/dcmitype/StillImage" />
        <dc:title></dc:title>
      </cc:Work>
    </rdf:RDF>
  </metadata>
  <g
     inkscape:label="Layer 1"
     inkscape:groupmode="layer"
     id="layer1"
     transform="translate(-54.193968,-30.783042)">
    <g
       style="opacity:0.63374484;fill:url(#linearGradient4905-6);fill-opacity:1;stroke:none"
       transform="matrix(0.12732727,0,0,0.13755966,54.194187,22.146909)"
       id="g4702">
      <path
         inkscape:connector-curvature="0"
         class="st0"
         d="M 511.031,187.125 C 504.062,111.375 438.297,62.781 373.672,62.781 309.031,62.781 256,115.172 256,179.797 l 0,0 C 256,115.172 202.969,62.781 138.344,62.781 73.703,62.781 7.938,111.375 0.969,187.125 0.313,194.328 0,201.234 0,207.844 c -0.625,152.328 169.156,154.891 247.047,235.547 3.141,3.25 2.609,2.969 2.609,2.969 1.609,1.813 3.906,2.859 6.344,2.859 2.438,0 4.75,-1.047 6.359,-2.875 0,0 -0.547,0.297 2.609,-2.953 77.876,-80.672 247.657,-83.219 247.032,-235.547 0,-6.61 -0.312,-13.516 -0.969,-20.719 z"
         style="fill:url(#linearGradient7272);fill-opacity:1;stroke:none"
         id="path4704" />
    </g>
    <g
       transform="translate(-46.4376,-3270.757)"
       style="font-size:16px;font-style:normal;font-variant:normal;font-weight:bold;font-stretch:normal;line-height:160.00000238%;letter-spacing:0px;word-spacing:0px;writing-mode:lr-tb;opacity:0.98999999;fill:#4d4d4d;fill-opacity:1;stroke:none;font-family:Yu Gothic;-inkscape-font-specification:Yu Gothic Bold"
       id="text5104">
      <path
         d="m 188.14542,3306.8538 c 0.85416,0.1041 1.47916,0.2265 1.875,0.3671 0.1927,0.068 0.28905,0.1641 0.28906,0.2891 -1e-5,0.1042 -0.026,0.1901 -0.0781,0.2578 -0.10417,0.125 -0.17969,0.3177 -0.22656,0.5781 -0.0156,0.083 -0.0391,0.2266 -0.0703,0.4297 -0.0208,0.1511 -0.0417,0.2735 -0.0625,0.3672 1.40624,-0.1354 2.79426,-0.3593 4.16406,-0.6719 0.0417,-0.01 0.0781,-0.016 0.10938,-0.016 0.0833,0 0.13801,0.06 0.16406,0.1797 0.10415,0.4479 0.15624,0.8099 0.15625,1.0859 -1e-5,0.1719 -0.11199,0.2787 -0.33594,0.3204 -1.5573,0.3177 -3.07032,0.5416 -4.53906,0.6718 -0.0677,0.6563 -0.10678,1.1954 -0.11719,1.6172 0.64583,-0.2187 1.46353,-0.3359 2.45313,-0.3515 0.16665,-0.4532 0.25519,-0.8438 0.26562,-1.1719 0.6927,0.2135 1.16666,0.4115 1.42188,0.5937 0.19269,0.125 0.28905,0.2422 0.28906,0.3516 -1e-5,0.062 -0.0313,0.1276 -0.0937,0.1953 -0.0469,0.042 -0.1146,0.1459 -0.20313,0.3125 1.11457,0.2969 1.95312,0.8125 2.51563,1.5469 0.50519,0.651 0.7578,1.4375 0.75781,2.3594 -1e-5,1.1823 -0.47658,2.1875 -1.42969,3.0156 -0.76043,0.6614 -1.76563,1.1588 -3.01562,1.4922 -0.10939,0.031 -0.19793,0.047 -0.26563,0.047 -0.17709,0 -0.32292,-0.1145 -0.4375,-0.3437 -0.11459,-0.2292 -0.42969,-0.5599 -0.94531,-0.9922 0.59374,-0.125 1.1927,-0.3125 1.79688,-0.5625 0.49999,-0.2083 0.89061,-0.4114 1.17187,-0.6094 0.85416,-0.6198 1.28124,-1.4192 1.28125,-2.3984 -1e-5,-0.6458 -0.22137,-1.1849 -0.66406,-1.6172 -0.34376,-0.3333 -0.78126,-0.5677 -1.3125,-0.7031 -0.84897,1.6146 -1.85678,3.0104 -3.02344,4.1875 0.0312,0.1146 0.12499,0.3568 0.28125,0.7265 0.0312,0.062 0.0469,0.1172 0.0469,0.1641 -1e-5,0.073 -0.0573,0.1511 -0.17188,0.2344 -0.31771,0.2344 -0.63803,0.4193 -0.96094,0.5547 -0.0677,0.036 -0.11979,0.055 -0.15625,0.055 -0.0521,0 -0.10677,-0.044 -0.16406,-0.1329 -0.099,-0.1718 -0.1875,-0.3802 -0.26562,-0.625 -1.11459,0.7709 -2.04428,1.1563 -2.78907,1.1563 -0.58333,0 -1.03385,-0.1979 -1.35156,-0.5938 -0.28125,-0.3489 -0.42188,-0.8125 -0.42187,-1.3906 -1e-5,-1.0416 0.42447,-2.0625 1.27343,-3.0625 0.68229,-0.7968 1.50521,-1.4349 2.46875,-1.914 0.0156,-0.5729 0.0417,-1.2396 0.0781,-2 -0.39063,0.016 -0.7474,0.023 -1.07031,0.023 l -0.57032,-0.01 c -0.48437,0 -0.78906,-0.01 -0.91406,-0.031 -0.17708,-0.016 -0.27344,-0.138 -0.28906,-0.3672 -0.0208,-0.1406 -0.0365,-0.3437 -0.0469,-0.6093 -0.0156,-0.3125 -0.026,-0.5156 -0.0312,-0.6094 0.48958,0.057 1.05208,0.086 1.6875,0.086 0.10417,0 0.57552,-0.01 1.41407,-0.016 0.0885,-0.776 0.1328,-1.3594 0.13281,-1.75 -10e-6,-0.2448 -0.0234,-0.4844 -0.0703,-0.7187 z m 1.44531,9.25 c 0.73437,-0.8438 1.35155,-1.7657 1.85156,-2.7657 -0.67188,0.016 -1.35417,0.1381 -2.04687,0.3672 0.0156,0.8907 0.0807,1.6901 0.19531,2.3985 z m -1.76563,-1.6797 c -0.67188,0.4791 -1.19271,1.0052 -1.5625,1.5781 -0.33333,0.5208 -0.5,1.0182 -0.5,1.4922 0,0.1979 0.0599,0.3542 0.17969,0.4687 0.0937,0.094 0.21094,0.1407 0.35156,0.1407 0.44792,0 1.0651,-0.3099 1.85157,-0.9297 -0.18751,-1.1354 -0.29428,-2.0521 -0.32032,-2.75 z"
         id="path3771"
         inkscape:connector-curvature="0" />
      <path
         d="m 203.64542,3310.4553 0.0156,-1.8281 c 0,-0.5364 -0.0365,-0.9661 -0.10937,-1.2891 0.77603,0.047 1.40884,0.1407 1.89843,0.2813 0.21354,0.057 0.32031,0.1589 0.32032,0.3047 -1e-5,0.062 -0.0313,0.1484 -0.0937,0.2578 -0.1198,0.224 -0.19532,0.4323 -0.22657,0.625 -0.0312,0.3073 -0.0573,0.75 -0.0781,1.3281 0.5677,-0.1146 1.25259,-0.3099 2.05469,-0.5859 0.0417,-0.016 0.0781,-0.024 0.10937,-0.024 0.0937,0 0.14843,0.055 0.16406,0.1641 0.0625,0.401 0.0937,0.8151 0.0937,1.2422 -1e-5,0.1302 -0.0703,0.2161 -0.21093,0.2578 -0.84897,0.2708 -1.61199,0.474 -2.28907,0.6094 l -0.0312,2.3203 c 1.42187,-0.6094 2.73437,-0.9037 3.9375,-0.8828 1.07291,0.01 1.92707,0.3437 2.5625,1 0.56249,0.5781 0.84374,1.3099 0.84375,2.1953 -1e-5,1.0937 -0.34897,1.9271 -1.04687,2.5 -0.60939,0.5 -1.41668,0.75 -2.42188,0.75 -0.47396,0 -0.91146,-0.047 -1.3125,-0.1406 -0.23438,-0.062 -0.35157,-0.224 -0.35156,-0.4844 -0.0521,-0.5313 -0.21355,-0.9818 -0.48437,-1.3516 0.5729,0.1875 1.23957,0.2813 2,0.2813 0.52082,0 0.94009,-0.1511 1.25781,-0.4532 0.31249,-0.2968 0.46874,-0.6953 0.46875,-1.1953 -1e-5,-0.552 -0.17449,-0.9687 -0.52344,-1.25 -0.30209,-0.2448 -0.71355,-0.3671 -1.23437,-0.3672 -1.03126,10e-5 -2.25262,0.3646 -3.66407,1.0938 0.0156,0.6823 0.0365,1.3229 0.0625,1.9219 0.0885,1.2448 0.13281,1.9375 0.13282,2.0781 -10e-6,0.1823 -0.008,0.2969 -0.0234,0.3437 -0.0313,0.094 -0.10417,0.1537 -0.21875,0.1797 -0.39584,0.1094 -0.78907,0.1745 -1.17969,0.1953 -0.10417,0.011 -0.23438,-0.096 -0.39062,-0.3203 -0.47918,-0.6614 -1.23699,-1.3437 -2.27344,-2.0468 -0.19792,0.1093 -0.36719,0.2265 -0.50781,0.3515 -0.0781,0.073 -0.16928,0.1094 -0.27344,0.1094 -0.13021,0 -0.2474,-0.086 -0.35156,-0.2578 -0.16146,-0.2604 -0.40626,-0.7552 -0.73438,-1.4844 0.51562,-0.1198 1.00521,-0.3073 1.46875,-0.5625 0.48437,-0.2656 1.35416,-0.7604 2.60938,-1.4844 l 0,-2.7343 c -1.06772,0.083 -1.96355,0.125 -2.6875,0.125 -0.22917,0 -0.35678,-0.112 -0.38282,-0.336 -0.0417,-0.2552 -0.10156,-0.7187 -0.17968,-1.3906 0.34895,0.052 0.76562,0.078 1.25,0.078 0.45833,0 1.13541,-0.042 2.03125,-0.125 z m 0.0469,6.0625 c -0.67709,0.4584 -1.19792,0.8203 -1.5625,1.086 0.55208,0.2968 1.05208,0.5364 1.5,0.7187 0.0364,0.01 0.0651,0.016 0.0859,0.016 0.0521,0 0.0781,-0.031 0.0781,-0.094 0,-0.016 -0.003,-0.031 -0.008,-0.047 -0.0104,-0.1614 -0.0261,-0.4479 -0.0469,-0.8594 -0.0208,-0.4166 -0.0365,-0.6901 -0.0469,-0.8203 z m 5.35156,-6.0625 c 0.18228,-0.3802 0.42708,-0.7968 0.73438,-1.25 0.0833,-0.1354 0.15363,-0.2031 0.21094,-0.2031 0.0156,0 0.0364,0 0.0625,0.01 1.38019,0.4063 2.5104,1.0573 3.39062,1.9531 0.0625,0.068 0.0937,0.1224 0.0937,0.1641 -1e-5,0.021 -0.0209,0.073 -0.0625,0.1562 -0.0886,0.1355 -0.2396,0.3386 -0.45312,0.6094 -0.23439,0.3021 -0.37241,0.4792 -0.41407,0.5313 -0.026,0.036 -0.0833,0.055 -0.17187,0.055 -0.0781,0 -0.12762,-0.018 -0.14844,-0.055 -0.75001,-0.8334 -1.83074,-1.4896 -3.24219,-1.9688 z"
         id="path3773"
         inkscape:connector-curvature="0" />
      <path
         d="m 216.35635,3308.7444 c 0.86979,0.1042 1.54688,0.2786 2.03125,0.5234 0.17187,0.078 0.25781,0.1745 0.25782,0.2891 -1e-5,0.094 -0.0443,0.2422 -0.13282,0.4453 -0.0937,0.2917 -0.14063,0.8151 -0.14062,1.5703 -1e-5,1.3281 0.0964,2.5443 0.28906,3.6484 0.27604,1.5678 0.71354,2.3516 1.3125,2.3516 0.27083,0 0.52864,-0.1875 0.77344,-0.5625 0.21874,-0.3333 0.47135,-0.888 0.75781,-1.6641 0.27083,0.4271 0.61197,0.8386 1.02344,1.2344 0.10937,0.099 0.16405,0.2136 0.16406,0.3438 -1e-5,0.073 -0.0156,0.1562 -0.0469,0.25 -0.32293,0.8593 -0.7448,1.5052 -1.26563,1.9375 -0.44271,0.3698 -0.92709,0.5547 -1.45312,0.5547 -0.70834,0 -1.34636,-0.4063 -1.91407,-1.2188 -0.52604,-0.7604 -0.88542,-1.7448 -1.07812,-2.9531 -0.25521,-1.5208 -0.38282,-3.0729 -0.38281,-4.6563 -1e-5,-0.8072 -0.0651,-1.5052 -0.19532,-2.0937 z m 8.19532,2.2656 c 0.52603,-0.3333 0.9453,-0.5781 1.25781,-0.7344 0.0885,-0.042 0.14842,-0.062 0.17969,-0.062 0.0521,0 0.10936,0.031 0.17187,0.094 0.78645,0.6823 1.47655,1.5677 2.07031,2.6562 0.52603,0.9532 0.8802,1.8933 1.0625,2.8203 0.0104,0.037 0.0156,0.068 0.0156,0.094 -2e-5,0.094 -0.0625,0.1797 -0.1875,0.2578 -0.46877,0.3021 -0.88543,0.5156 -1.25,0.6406 -0.0521,0.016 -0.099,0.024 -0.14063,0.024 -0.10418,0 -0.16928,-0.068 -0.19531,-0.2032 -0.29689,-1.2552 -0.69012,-2.3281 -1.17969,-3.2187 -0.45834,-0.8281 -1.0599,-1.6172 -1.80468,-2.3672 z"
         id="path3775"
         inkscape:connector-curvature="0" />
      <path
         d="m 233.90323,3307.9241 c 0.8177,0 1.52343,-0.031 2.11719,-0.094 1.18749,-0.1406 2.21613,-0.2916 3.08593,-0.4531 0.42187,-0.078 0.71093,-0.1745 0.86719,-0.2891 0.0885,-0.073 0.18489,-0.1093 0.28906,-0.1093 0.0885,0 0.18229,0.042 0.28125,0.125 0.42708,0.3073 0.78645,0.6666 1.07813,1.0781 0.0729,0.088 0.10936,0.1849 0.10937,0.289 -1e-5,0.1771 -0.11199,0.3256 -0.33593,0.4454 -0.1146,0.068 -0.32293,0.2369 -0.625,0.5078 -0.27085,0.2864 -1.4922,1.5312 -3.66407,3.7343 l 0.0625,0.062 c 1.04687,-0.6093 2.14062,-0.914 3.28125,-0.914 1.22916,0 2.20312,0.3802 2.92188,1.1406 0.62499,0.6563 0.93748,1.487 0.9375,2.4922 -2e-5,1.3854 -0.6146,2.513 -1.84375,3.3828 -1.06251,0.7552 -2.51824,1.2708 -4.36719,1.5469 -0.12501,0.026 -0.21615,0.039 -0.27344,0.039 -0.14063,0 -0.25782,-0.088 -0.35156,-0.2656 -0.22917,-0.4323 -0.59636,-0.8359 -1.10156,-1.2109 3.99999,-0.5156 5.99999,-1.75 6,-3.7031 -1e-5,-0.6771 -0.2448,-1.1901 -0.73438,-1.5391 -0.40626,-0.2865 -0.92969,-0.4297 -1.57031,-0.4297 -0.90626,0 -1.82813,0.2162 -2.76562,0.6484 -0.76043,0.3542 -1.46615,0.8204 -2.11719,1.3985 -0.63021,0.5573 -1.15105,1.0859 -1.5625,1.5859 -0.099,0.1198 -0.1849,0.1797 -0.25781,0.1797 -0.0677,0 -0.13803,-0.036 -0.21094,-0.1094 -0.36459,-0.3229 -0.67448,-0.6484 -0.92969,-0.9765 -0.0729,-0.094 -0.10938,-0.1589 -0.10937,-0.1953 -1e-5,-0.057 0.0417,-0.1198 0.125,-0.1875 0.8177,-0.75 1.79426,-1.7214 2.92968,-2.9141 1.04687,-1.1406 2.27864,-2.5495 3.69532,-4.2266 -0.67189,0.1407 -1.69011,0.3542 -3.05469,0.6407 -0.26563,0.078 -0.47396,0.1484 -0.625,0.2109 -0.14584,0.073 -0.25782,0.1094 -0.33594,0.1094 -0.11979,0 -0.22657,-0.1016 -0.32031,-0.3047 -0.16146,-0.2813 -0.3698,-0.8464 -0.625,-1.6953 z"
         id="path3777"
         inkscape:connector-curvature="0" />
      <path
         d="m 186.16104,3339.9381 c 0.41146,0.2084 0.82291,0.4219 1.23438,0.6407 0.0833,0.047 0.12499,0.099 0.125,0.1562 -1e-5,0.036 -0.0156,0.081 -0.0469,0.1328 -0.28125,0.4271 -0.42188,0.8334 -0.42187,1.2188 -1e-5,0.5469 0.33072,0.9375 0.99218,1.1718 0.60416,0.2188 1.53906,0.3282 2.80469,0.3282 1.47916,0 2.92447,-0.1537 4.33594,-0.461 0.0573,-0.01 0.10415,-0.016 0.14062,-0.016 0.10416,0 0.16926,0.055 0.19532,0.1641 0.12498,0.4739 0.21092,0.9948 0.25781,1.5625 -1e-5,0.016 -1e-5,0.026 0,0.031 -1e-5,0.1094 -0.0912,0.1797 -0.27344,0.211 -1.40105,0.2552 -2.9922,0.3828 -4.77344,0.3828 -1.89584,0 -3.30469,-0.3151 -4.22656,-0.9453 -0.79688,-0.5469 -1.19531,-1.3099 -1.19531,-2.2891 0,-0.6458 0.28385,-1.4089 0.85156,-2.2891 z m 0.35156,-6.0468 c 1.16667,0.276 2.66406,0.414 4.49219,0.414 0.73437,0 1.86457,-0.047 3.39063,-0.1406 0.0208,0 0.0364,0 0.0469,0 0.11457,0 0.17968,0.06 0.19531,0.1797 0.0521,0.4062 0.0781,0.8594 0.0781,1.3594 -1e-5,0.2083 -0.0912,0.3203 -0.27344,0.3359 -1.25522,0.1875 -2.5599,0.7162 -3.91406,1.5859 -0.13022,0.094 -0.26563,0.1407 -0.40625,0.1407 -0.10938,0 -0.22136,-0.031 -0.33594,-0.094 -0.35938,-0.2396 -0.73178,-0.4114 -1.11719,-0.5156 0.86979,-0.5677 1.5677,-1.0104 2.09375,-1.3281 -0.23438,0.031 -0.67188,0.047 -1.3125,0.047 -0.84896,0 -1.78125,-0.091 -2.79687,-0.2734 -0.14063,-0.031 -0.21094,-0.1276 -0.21094,-0.2891 0,-0.1666 0.0234,-0.6406 0.0703,-1.4218 z"
         id="path3779"
         inkscape:connector-curvature="0" />
      <path
         d="m 203.15323,3332.7819 c 0.87499,0 1.57551,0.062 2.10156,0.1875 0.1927,0.047 0.28906,0.1328 0.28906,0.2578 l -0.11718,0.6719 c -1e-5,0.099 0.026,0.4557 0.0781,1.0703 0.12499,0.9583 0.29687,1.875 0.51563,2.75 0.3177,-0.1719 0.70832,-0.3802 1.17187,-0.625 0.53124,-0.2865 0.89843,-0.4818 1.10156,-0.586 0.51562,-0.3072 0.88281,-0.5963 1.10157,-0.8671 0.49478,0.5104 0.8854,1.013 1.17187,1.5078 0.0729,0.1094 0.10936,0.2213 0.10938,0.3359 -2e-5,0.1823 -0.10679,0.2891 -0.32032,0.3203 -0.40105,0.062 -0.91407,0.2214 -1.53906,0.4766 -1.57813,0.6406 -2.83074,1.2656 -3.75781,1.875 -1.26042,0.8229 -1.89063,1.6276 -1.89063,2.414 0,0.5053 0.22135,0.8594 0.66407,1.0625 0.41145,0.1875 1.07551,0.2813 1.99218,0.2813 1.82812,0 3.41926,-0.125 4.77344,-0.375 0.0417,-0.01 0.0755,-0.01 0.10156,-0.01 0.099,0 0.16145,0.068 0.1875,0.2031 0.0625,0.3438 0.11457,0.8386 0.15625,1.4844 0.0156,0.1667 -0.0807,0.2578 -0.28906,0.2734 -1.21355,0.1615 -2.80209,0.2422 -4.76562,0.2422 -3.08334,0 -4.62501,-1.0234 -4.625,-3.0703 -1e-5,-0.8906 0.30989,-1.6953 0.92968,-2.4141 0.45833,-0.5416 1.16146,-1.1119 2.10938,-1.7109 -0.3698,-1.1927 -0.64584,-2.4948 -0.82813,-3.9063 -0.11458,-0.8541 -0.25521,-1.4713 -0.42187,-1.8515 z m 6.48437,0.9687 0.84375,-0.5859 c 0.0365,-0.026 0.0703,-0.039 0.10157,-0.039 0.0364,0 0.0833,0.024 0.14062,0.07 0.54686,0.4219 1.05207,0.9922 1.51563,1.711 0.0312,0.042 0.0469,0.081 0.0469,0.1172 -1e-5,0.047 -0.0313,0.094 -0.0937,0.1406 l -0.67187,0.4922 c -0.0469,0.037 -0.0886,0.055 -0.125,0.055 -0.0469,0 -0.0938,-0.034 -0.14063,-0.1016 -0.50001,-0.7604 -1.03907,-1.3802 -1.61719,-1.8594 z m 1.46875,-1.0547 0.80469,-0.5781 c 0.0364,-0.026 0.0703,-0.039 0.10156,-0.039 0.0365,0 0.0807,0.023 0.13282,0.07 0.61457,0.4687 1.12238,1.0182 1.52343,1.6484 0.0312,0.052 0.0469,0.096 0.0469,0.1328 -2e-5,0.057 -0.0313,0.1094 -0.0937,0.1563 l -0.64063,0.5 c -0.0469,0.031 -0.0885,0.047 -0.125,0.047 -0.0573,1e-4 -0.10678,-0.034 -0.14843,-0.1015 -0.44793,-0.7135 -0.98179,-1.3255 -1.60157,-1.836 z"
         id="path3781"
         inkscape:connector-curvature="0" />
      <path
         d="m 221.06729,3341.3053 c -0.0625,0.4948 -0.0938,0.9245 -0.0937,1.2891 -1e-5,0.776 0.1927,1.3229 0.57813,1.6406 0.33332,0.2708 0.84895,0.4063 1.54687,0.4063 1.9427,0 2.91405,-0.7188 2.91406,-2.1563 -1e-5,-0.5208 -0.10157,-0.9896 -0.30468,-1.4062 -0.21876,-0.4375 -0.59637,-0.9401 -1.13282,-1.5079 0.17187,0.026 0.33593,0.039 0.49219,0.039 0.1927,0 0.57291,-0.044 1.14063,-0.1328 0.0364,-0.01 0.0729,-0.016 0.10937,-0.016 0.0885,0 0.16405,0.026 0.22656,0.078 0.90624,0.8594 1.35937,1.862 1.35938,3.0078 -1e-5,1.2083 -0.47918,2.1589 -1.4375,2.8516 -0.82814,0.5937 -1.88543,0.8906 -3.17188,0.8906 -2.6875,0 -4.03125,-1.2031 -4.03125,-3.6094 0,-0.1666 0.0365,-0.6692 0.10938,-1.5078 -0.89063,-0.1354 -1.61459,-0.2943 -2.17188,-0.4766 -0.10417,-0.031 -0.16406,-0.1328 -0.17968,-0.3046 -0.0313,-0.3386 -0.0469,-0.6589 -0.0469,-0.961 0,-0.1823 0.005,-0.3593 0.0156,-0.5312 0.89583,0.3281 1.76041,0.5364 2.59375,0.625 0.11457,-0.8646 0.20572,-1.6276 0.27343,-2.2891 -1.0625,-0.1354 -1.83073,-0.2838 -2.30468,-0.4453 -0.17188,-0.042 -0.25782,-0.1328 -0.25782,-0.2734 -0.0312,-0.7657 -0.0469,-1.2604 -0.0469,-1.4844 0.91666,0.2969 1.88281,0.5 2.89844,0.6094 0.10937,-0.8021 0.17707,-1.4167 0.20312,-1.8438 0.0156,-0.2031 0.0234,-0.4062 0.0234,-0.6094 -1e-5,-0.2604 -0.013,-0.5052 -0.0391,-0.7343 0.80728,0.1041 1.44791,0.2526 1.92187,0.4453 0.23437,0.083 0.35156,0.2057 0.35156,0.3672 0,0.1041 -0.0417,0.2057 -0.125,0.3046 -0.099,0.099 -0.19532,0.3282 -0.28906,0.6875 -0.0938,0.4271 -0.17969,0.9297 -0.25781,1.5079 0.15624,0.01 0.32812,0.016 0.51562,0.016 0.43229,0 0.91666,-0.037 1.45313,-0.1094 0.10936,0 0.16405,0.062 0.16406,0.1875 0.005,0.1459 0.008,0.2943 0.008,0.4453 -10e-6,0.2917 -0.013,0.5443 -0.0391,0.7578 -1e-5,0.1407 -0.086,0.2188 -0.25781,0.2344 -0.50522,0.057 -1.0573,0.086 -1.65625,0.086 -0.10418,1e-4 -0.26303,1e-4 -0.47656,0 -0.0469,0.2709 -0.16407,1.0339 -0.35157,2.2891 0.23437,0.01 0.4375,0.01 0.60938,0.01 0.53645,0 1.09114,-0.021 1.66406,-0.062 0.0312,-0.01 0.0625,-0.01 0.0937,-0.01 0.10937,0 0.16405,0.062 0.16406,0.1875 -10e-6,0.4271 -0.026,0.8281 -0.0781,1.2031 -0.0156,0.1719 -0.0912,0.2579 -0.22656,0.2578 -0.46876,0.036 -1.01303,0.055 -1.63282,0.055 -0.26042,0 -0.53386,0 -0.82031,-0.01 z"
         id="path3783"
         inkscape:connector-curvature="0" />
      <path
         d="m 238.52042,3335.235 2.875,-0.062 c 0.35415,-0.01 0.62238,-0.075 0.80468,-0.1953 0.0521,-0.042 0.11978,-0.062 0.20313,-0.062 0.0781,0 0.16405,0.031 0.25781,0.094 0.36457,0.2344 0.72655,0.5235 1.08594,0.8672 0.14061,0.125 0.21092,0.2474 0.21094,0.3672 -2e-5,0.1146 -0.0651,0.2266 -0.19532,0.336 -0.19793,0.1562 -0.3724,0.3854 -0.52343,0.6875 -1.00522,2.0416 -2.06251,3.6901 -3.17188,4.9453 -0.72917,0.8229 -1.57032,1.6172 -2.52344,2.3828 -0.81771,0.6562 -1.59636,1.1901 -2.33593,1.6015 -0.0833,0.052 -0.16928,0.078 -0.25782,0.078 -0.11458,0 -0.23698,-0.057 -0.36718,-0.1719 -0.40105,-0.3177 -0.90886,-0.5625 -1.52344,-0.7344 1.29687,-0.7187 2.35676,-1.401 3.17969,-2.0469 0.68228,-0.5468 1.39843,-1.2265 2.14843,-2.039 0.6875,-0.7604 1.24999,-1.4844 1.6875,-2.1719 0.40624,-0.6354 0.83072,-1.4245 1.27344,-2.3672 l -3.875,0.1094 c -1.28125,1.5885 -2.28907,2.6823 -3.02344,3.2812 -0.11458,0.1198 -0.22656,0.1797 -0.33593,0.1797 -0.0781,0 -0.15626,-0.031 -0.23438,-0.094 -0.48438,-0.349 -0.9974,-0.5807 -1.53906,-0.6953 1.78645,-1.4584 3.22135,-3.0417 4.30469,-4.75 0.48957,-0.8333 0.80468,-1.5547 0.94531,-2.1641 0.90624,0.3229 1.52864,0.6068 1.86719,0.8516 0.10936,0.078 0.16405,0.1693 0.16406,0.2734 -1e-5,0.1094 -0.0599,0.2005 -0.17969,0.2734 -0.0677,0.042 -0.20053,0.185 -0.39844,0.4297 -0.11459,0.1823 -0.28907,0.448 -0.52343,0.7969 z"
         id="path3785"
         inkscape:connector-curvature="0" />
      <path
         d="m 250.53604,3333.11 c 1.03125,0.125 1.69531,0.237 1.99219,0.3359 0.18228,0.047 0.27343,0.1329 0.27344,0.2579 -1e-5,0.052 -0.0234,0.1328 -0.0703,0.2421 -0.11459,0.2449 -0.17188,0.7501 -0.17187,1.5157 l 0,3.2343 c -1e-5,0.198 0.013,0.8698 0.0391,2.0157 0,0.2135 -0.11459,0.3203 -0.34375,0.3203 l -1.28906,0 c -0.19792,0 -0.29688,-0.078 -0.29688,-0.2344 0,-0.01 0,-0.018 0,-0.039 l 0.0469,-2.1796 0,-3.1329 c -1e-5,-0.9843 -0.0599,-1.763 -0.17969,-2.3359 z m 0.8125,11.9688 c 1.79687,-0.5521 3.09635,-1.3308 3.89844,-2.336 0.71874,-0.8854 1.07811,-2.3099 1.07812,-4.2734 l 0,-3.0235 c -1e-5,-1.151 -0.0599,-2.0208 -0.17968,-2.6093 0.89061,0.078 1.58592,0.1953 2.08593,0.3515 0.14583,0.047 0.21874,0.1381 0.21875,0.2735 -1e-5,0.099 -0.0208,0.1849 -0.0625,0.2578 -0.0938,0.224 -0.14063,0.8047 -0.14062,1.7422 l 0,2.9765 c -1e-5,1.2865 -0.1146,2.3516 -0.34375,3.1953 -0.20314,0.7657 -0.52345,1.4402 -0.96094,2.0235 -0.41147,0.5521 -0.96876,1.0677 -1.67187,1.5469 -0.59897,0.4114 -1.21355,0.7343 -1.84375,0.9687 -0.14064,0.052 -0.25261,0.078 -0.33594,0.078 -0.13022,0 -0.25782,-0.065 -0.38281,-0.1953 -0.38022,-0.3802 -0.83334,-0.7057 -1.35938,-0.9765 z"
         id="path3787"
         inkscape:connector-curvature="0" />
      <path
         d="m 265.91885,3335.0944 c 0.80729,0.062 1.71354,0.094 2.71875,0.094 l 3.17188,0 c 0.78645,0 1.74478,-0.026 2.875,-0.078 0.11978,0 0.17967,0.091 0.17969,0.2734 0.0156,0.2344 0.0234,0.4714 0.0234,0.711 -10e-6,0.2344 -0.008,0.4713 -0.0234,0.7109 -0.0156,0.2032 -0.086,0.3047 -0.21094,0.3047 -0.76043,-0.031 -1.69272,-0.047 -2.79688,-0.047 l -3.17187,0 c -0.63022,0 -1.44532,0.021 -2.44531,0.062 -0.13542,0 -0.21094,-0.1119 -0.22657,-0.3359 -0.0625,-0.3958 -0.0937,-0.9609 -0.0937,-1.6953 z m -1.96875,6.7812 c 0.92188,0.062 2.02604,0.094 3.3125,0.094 l 5.82032,0 c 1.16665,0 2.36717,-0.026 3.60156,-0.078 0.17186,0 0.2578,0.096 0.25781,0.289 0.0156,0.2292 0.0234,0.461 0.0234,0.6953 -2e-5,0.2344 -0.008,0.4662 -0.0234,0.6953 -1e-5,0.224 -0.0807,0.336 -0.24219,0.336 -0.76043,-0.031 -1.92709,-0.047 -3.5,-0.047 l -5.98437,0 c -1.27605,0 -2.23698,0.026 -2.88281,0.078 -0.13021,0 -0.21094,-0.1015 -0.24219,-0.3047 -0.0417,-0.25 -0.0885,-0.8359 -0.14063,-1.7578 z"
         id="path3789"
         inkscape:connector-curvature="0" />
      <path
         d="m 281.41104,3337.9225 c 0.3125,-0.1719 0.73437,-0.3828 1.26563,-0.6328 0.0625,-0.031 0.11978,-0.047 0.17187,-0.047 0.0833,0 0.16406,0.052 0.24219,0.1563 0.64062,0.8073 1.09895,1.5963 1.375,2.3672 0.0417,0.151 0.0625,0.2317 0.0625,0.2421 -1e-5,0.068 -0.0625,0.1433 -0.1875,0.2266 -0.33334,0.1927 -0.67709,0.3568 -1.03125,0.4922 -0.0521,0.021 -0.099,0.031 -0.14063,0.031 -0.10938,1e-4 -0.19531,-0.083 -0.25781,-0.25 -0.38542,-0.9843 -0.88542,-1.8463 -1.5,-2.5859 z m 3.21875,-0.8125 c 0.68229,-0.3229 1.10937,-0.5182 1.28125,-0.5859 0.0625,-0.031 0.11718,-0.047 0.16406,-0.047 0.0885,0 0.17187,0.057 0.25,0.1719 0.53125,0.6927 0.9427,1.4713 1.23438,2.3359 0.026,0.078 0.039,0.1406 0.0391,0.1875 -1e-5,0.089 -0.0677,0.1693 -0.20312,0.2422 -0.3073,0.1771 -0.67449,0.3411 -1.10157,0.4922 -0.0417,0.016 -0.0755,0.023 -0.10156,0.023 -0.0833,0 -0.15626,-0.086 -0.21875,-0.2578 -0.39063,-1.0052 -0.83855,-1.8594 -1.34375,-2.5625 z m 5.03906,-0.3828 c 0.80728,0.25 1.40364,0.5052 1.78907,0.7656 0.14061,0.1042 0.21092,0.1953 0.21093,0.2735 -1e-5,0.089 -0.0573,0.1849 -0.17187,0.289 -0.13022,0.1094 -0.29168,0.3802 -0.48438,0.8125 -0.69272,1.6407 -1.4974,3.0599 -2.41406,4.2578 -0.9948,1.2709 -2.09376,2.3021 -3.29687,3.0938 -0.15626,0.1146 -0.28386,0.1719 -0.38282,0.1719 -0.099,0 -0.1849,-0.036 -0.25781,-0.1094 -0.35417,-0.2865 -0.8073,-0.5104 -1.35937,-0.6719 1.03124,-0.6823 1.83072,-1.2734 2.39843,-1.7734 0.51562,-0.4584 0.99479,-0.9766 1.4375,-1.5547 0.93749,-1.2188 1.65885,-2.5052 2.16407,-3.8594 0.19269,-0.5573 0.31509,-1.1224 0.36718,-1.6953 z"
         id="path3791"
         inkscape:connector-curvature="0" />
      <path
         d="m 302.52042,3335.235 2.875,-0.062 c 0.35415,-0.01 0.62238,-0.075 0.80468,-0.1953 0.0521,-0.042 0.11978,-0.062 0.20313,-0.062 0.0781,0 0.16405,0.031 0.25781,0.094 0.36457,0.2344 0.72655,0.5235 1.08594,0.8672 0.14061,0.125 0.21092,0.2474 0.21094,0.3672 -2e-5,0.1146 -0.0651,0.2266 -0.19532,0.336 -0.19793,0.1562 -0.3724,0.3854 -0.52343,0.6875 -1.00522,2.0416 -2.06251,3.6901 -3.17188,4.9453 -0.72917,0.8229 -1.57032,1.6172 -2.52344,2.3828 -0.81771,0.6562 -1.59636,1.1901 -2.33593,1.6015 -0.0833,0.052 -0.16928,0.078 -0.25782,0.078 -0.11458,0 -0.23698,-0.057 -0.36718,-0.1719 -0.40105,-0.3177 -0.90886,-0.5625 -1.52344,-0.7344 1.29687,-0.7187 2.35676,-1.401 3.17969,-2.0469 0.68228,-0.5468 1.39843,-1.2265 2.14843,-2.039 0.6875,-0.7604 1.24999,-1.4844 1.6875,-2.1719 0.40624,-0.6354 0.83072,-1.4245 1.27344,-2.3672 l -3.875,0.1094 c -1.28125,1.5885 -2.28907,2.6823 -3.02344,3.2812 -0.11458,0.1198 -0.22656,0.1797 -0.33593,0.1797 -0.0781,0 -0.15626,-0.031 -0.23438,-0.094 -0.48438,-0.349 -0.9974,-0.5807 -1.53906,-0.6953 1.78645,-1.4584 3.22135,-3.0417 4.30469,-4.75 0.48957,-0.8333 0.80468,-1.5547 0.94531,-2.1641 0.90624,0.3229 1.52864,0.6068 1.86719,0.8516 0.10936,0.078 0.16405,0.1693 0.16406,0.2734 -1e-5,0.1094 -0.0599,0.2005 -0.17969,0.2734 -0.0677,0.042 -0.20053,0.185 -0.39844,0.4297 -0.11459,0.1823 -0.28907,0.448 -0.52343,0.7969 z"
         id="path3793"
         inkscape:connector-curvature="0" />
    </g>
  </g>
</svg>
