<?xml version="1.0" encoding="utf-8"?>
<!-- Generator: Adobe Illustrator 27.3.1, SVG Export Plug-In . SVG Version: 6.00 Build 0)  -->
<svg version="1.1" id="_x32_" xmlns="http://www.w3.org/2000/svg" xmlns:xlink="http://www.w3.org/1999/xlink" x="0px" y="0px"
	 viewBox="0 0 512 512" style="enable-background:new 0 0 512 512;" xml:space="preserve">
<style type="text/css">
	.st0{fill:#4B4B4B;}
	.st1{fill:#FFFFFF;}
</style>
<g>
	<path class="st0" d="M122.9,366C122.9,366,122.9,366,122.9,366L122.9,366L122.9,366z"/>
	<path class="st0" d="M368.3,271.1L368.3,271.1C368.3,271.1,368.3,271.1,368.3,271.1L368.3,271.1z"/>
	<g id="XMLID_00000060736419273752604080000015050606956336562833_">
		<g>
			<path class="st1" d="M142.3,174.1c2.7,0.5,4.6,1.3,5.9,2.1c1,0.6,1.6,1.2,2.2,1.9c0.8,1,1.5,2.2,2,4.1c0.5,1.8,0.8,4.3,0.8,7.2
				c0,4.7-0.8,10.5-2,16.8l-0.2,1v1.1c0,1.9,0.4,2.9,0.6,3.7c0.3,0.7,0.5,1.2,0.7,1.6c0.4,0.7,0.6,1.1,0.9,1.4
				c0.4,0.6,0.7,0.9,1,1.3c0.6,0.6,1.1,1.3,1.8,2c1.2,1.2,2.6,2.6,4.1,4.2c2.3,2.3,4.8,5,6.9,7.5c1.1,1.2,2,2.4,2.8,3.3
				c0.7,0.9,1.2,1.8,1.4,2l0.9,1.6l1.4,1.2c7.5,6.7,15.9,14.7,22.3,21c3.2,3.1,5.9,5.8,7.8,7.8c1,1,1.7,1.7,2.2,2.2
				c0.2,0.2,0.4,0.5,0.6,0.6l0.2,0.2l0.2,0.2l0.2,0.2c3.9,3.5,8.8,5.3,13.8,5.3c3.3,0,6.6-0.8,9.6-2.4h0
				c6.8-3.6,10.9-10.6,10.9-18.2c0-0.6-0.1-1.1-0.1-1.7h0l-2.7-76.1c0-2.4,0.2-23.4,0.2-30.8c0-34.5,13.9-65.6,36.6-88.2
				c22.6-22.6,53.7-36.6,88.2-36.6c34.5,0,65.6,14,88.2,36.6c22.6,22.6,36.5,53.7,36.5,88.2c0,31.7-11.8,60.5-31.2,82.5
				c-19.5,22-46.5,37.1-77,41.1c-2.6,0.4-5.2,0.6-7.8,0.8H372h-0.1c0,0-0.2,0-0.6,0c-1,0.1-2,0.1-3.1,0.2l0.1,0c-0.5,0-0.8,0-0.9,0
				h-0.1c-1.3,0.1-2.5,0.1-3.8,0.1c-0.8,0-1.6,0-2.5,0c-11.9-1.9-21.6-7.4-29.4-14.5c-7.7-7.1-13.4-16.7-16.5-28.3
				c-1.2-4.4-1.7-8.7-1.7-13c0-7.5,1.6-14.9,4.6-21.7c4.4-10.3,11.8-19.3,20.5-25.7c8.7-6.4,18.6-10,28.1-10c4.8,0,9.4,0.9,14,2.8
				l5.9-14c-6.5-2.7-13.2-3.9-19.9-3.9c-8.9,0-17.6,2.2-25.6,6c-12,5.7-22.6,15.1-30.3,26.6s-12.5,25.3-12.5,39.9
				c0,5.6,0.7,11.2,2.2,16.9c3.7,14.1,10.9,26.3,20.9,35.6c7.6,7,16.8,12.2,27.2,15.3c4,0.7,5,4.5,5.7,8.4
				c1.9,10.7,2.8,21.1,2.8,31.2c0,20.7-3.7,40.1-9.9,57.7c-9.3,26.4-24.3,48.8-40.8,64.9c-8.2,8.1-16.8,14.6-25,19.3
				c-8.2,4.7-16.2,7.6-23,8.6l-6.6,1l-2.1,6.3c-1.3,4-2.6,7.3-3.6,9.8h-137c-0.3-1.4-0.5-2.8-0.5-4.3c0-1.5,0.2-3,0.7-4.4
				c0.4-1.1,0.9-2.1,1.8-3.3c1.3-1.7,3.2-3.6,6.6-5.6c3.4-2,8.1-3.9,14.7-5.5l11.7-2.8l-4-11.4c-2.1-5.9-3.8-11.2-4.9-15.9
				c-1.1-4.7-1.6-8.8-1.6-12.6c0-4,0.6-7.6,1.9-11.3c3.1-0.5,6.2-1.1,9.2-1.8c4-0.9,7.7-1.9,11.2-3.1c1.8-0.6,3.5-1.4,5.2-2.3
				c1.7-0.9,3.4-2,5-3.5c4.4-4,4.7-10.9,0.7-15.3c-4.1-4.4-10.9-4.7-15.2-0.7c0,0-0.4,0.2-1,0.5c-1.1,0.6-3,1.2-5.4,1.9
				c-3.6,1-8.2,1.9-13.1,2.8c-4.6,0.8-9.6,1.6-14.5,2.5l-34.1-0.5l-0.4,0h0c-0.1,0-0.9-0.1-1.8-0.5c-1.4-0.6-3.2-1.8-4.4-2.9
				c-0.6-0.6-1-1.1-1.2-1.4l-0.1-0.2c-0.1-0.4-0.1-0.7-0.1-1c0-0.6,0.1-1,0.4-1.6c0.4-0.9,1.5-2.1,2.9-3.1c1.4-1,3.1-1.8,3.9-2
				l27-7.1c5.2-1.1,9.9-3.9,13.4-8l16.2-18.6l-3.5-24.4l-11.8,3.2c0,0-0.8,0.1-1.7,0.2c-1,0.1-2.2,0.1-3.7,0.1
				c-3,0-6.7-0.2-10.2-0.4c-3.5-0.2-6.8-0.4-9.6-0.5c-12-0.2-22.3-0.4-31-1c-6.5-0.4-12.1-1-16.8-1.9c-3.5-0.7-6.5-1.5-9.1-2.6
				c-3.8-1.5-6.6-3.3-9.1-5.8c-2.4-2.5-4.6-5.8-6.6-10.6c-1.7-4.2-2.2-7.2-2.2-9.4c0-2.2,0.5-3.6,1.1-4.9c0.5-0.9,1.1-1.7,1.8-2.5
				c1-1.1,2.3-2,3.3-2.5c0.5-0.3,0.9-0.5,1.3-0.7c0.2-0.1,0.3-0.1,0.6-0.3c0.1-0.1,0.3-0.1,0.6-0.3c0.2-0.1,0.4-0.2,0.9-0.5
				c0.2-0.1,0.5-0.3,1-0.7c0.2-0.2,0.5-0.4,0.8-0.8c0.3-0.3,0.8-0.8,1.2-1.5l0-0.1c5.5-8.1,10.4-16.5,15.5-24.6
				c7.5-12.2,15.3-23.6,24.8-32.2c4.8-4.3,9.9-7.9,15.8-10.8c5.9-2.9,12.5-4.9,20.3-6l8.6-1.2l0.8-8.6c0.1-0.9,0.2-1.6,0.4-2.3
				c0.4-1.6,1.5-4,3-6.4c2.3-3.7,5.7-7.5,9-10c1.6-1.2,3.2-2.2,4.5-2.8c1.3-0.6,2.3-0.7,2.8-0.7L142.3,174.1L142.3,174.1z"/>
			<path class="st0" d="M509.9,146.4c0,37.1-13.9,71.1-36.6,96.9c-22.8,25.8-54.5,43.5-90.4,48.3l-0.7,0.1H382
				c-1.9,0.2-3.8,0.4-5.6,0.6c1.6,10.4,2.4,20.6,2.4,30.5c0,34.9-9.3,66.6-23.5,92.9c-14.2,26.3-33.2,47.4-53,61.4
				c-11.1,7.8-22.5,13.4-33.9,16.2c-3,8.1-5.3,12.6-5.5,13l-3.1,5.7h-164l-3.1-5.3c-0.3-0.4-1.5-2.7-2.8-6.2
				c-1.3-3.6-2.6-8.5-2.6-14.4c0-4,0.7-8.6,2.5-13.1c1.8-4.6,4.9-9.1,9.1-13c2.8-2.6,6.2-5,10.1-7c2.3-1.2,4.8-2.3,7.4-3.3
				c-0.8-2.6-1.5-5.1-2.1-7.6c-1.4-5.9-2.2-11.7-2.2-17.5c0-2.9,0.2-5.7,0.7-8.6l-28.9-0.4c-0.2,0-0.5,0-0.8,0c-2.7,0-5-0.5-7.3-1.2
				c-2.2-0.7-4.3-1.6-6.3-2.7c-3.9-2.2-7.5-5-10.4-8.5c-1.9-2.4-3.7-5.2-4.6-8.9c-0.5-2.1-0.8-4.3-0.8-6.4c0-3.1,0.6-6,1.6-8.7
				c1-2.6,2.3-5,3.8-7c3-4,6.7-6.8,10.3-8.9c2.4-1.4,4.8-2.4,7.2-3.1l0.1,0l27.7-7.3l0.4-0.1c0.7-0.1,1.3-0.5,1.7-1h0l3.4-3.9
				c-1-0.1-2.1-0.1-3.1-0.2c-3.6-0.2-6.9-0.5-8.7-0.5c-11.8-0.3-22.1-0.5-31.5-1c-9.3-0.6-17.6-1.5-25.2-3.5
				c-5.1-1.3-9.9-3.1-14.3-5.7c-5.9-3.4-11.1-8.1-15.2-14c-2.3-3.3-4.3-7-5.9-11.1c-2.6-6.3-3.9-12.2-3.9-17.7c0-3.6,0.6-7,1.6-10.1
				c1-3.1,2.4-5.8,3.9-8.1c3.2-4.6,6.9-7.6,9.9-9.5c0.9-0.6,1.7-1,2.4-1.5c5-7.6,10-16.1,15.5-24.8c6-9.5,12.6-19.2,20.9-28
				c5.5-5.8,11.8-11.2,19.1-15.7c7.8-4.9,16.8-8.6,27-10.8c0.7-2,1.6-3.9,2.5-5.8c1.3-2.6,3-5.2,4.8-7.6c3.6-4.9,8-9.4,13.1-13.1
				c3.4-2.4,7.2-4.5,11.4-5.7c2.4-0.7,5-1.2,7.7-1.2c1.6,0,3.1,0.2,4.7,0.5c5.4,1.1,10.2,2.9,14.3,5.8c4.1,2.8,7.4,6.6,9.6,10.7
				c1.5,2.7,2.5,5.6,3.2,8.5c0.9,3.8,1.2,7.7,1.2,11.6c0,5.2-0.6,10.4-1.5,15.7c0,0.1,0.1,0.1,0.1,0.1c2.3,2.4,5.4,5.6,8.3,8.8
				c2,2.2,3.9,4.4,5.5,6.6c0.6,0.8,1.1,1.5,1.6,2.3c7.6,6.9,15.6,14.5,21.8,20.6c3.7,3.6,6.7,6.6,8.7,8.6l-2.6-74.6v-0.2
				c0,0,0-1.4,0-3.8c0-2.3,0-5.4,0.1-8.8c0.1-6.8,0.1-14.5,0.1-18.3c0-40.4,16.4-77.1,42.9-103.5C286.4,16.4,323,0,363.5,0
				c40.4,0,77.1,16.4,103.5,42.9C493.5,69.4,509.9,106,509.9,146.4z M457,229c19.4-22,31.2-50.8,31.2-82.5
				c0-34.5-13.9-65.6-36.5-88.2c-22.6-22.6-53.8-36.6-88.2-36.6c-34.5,0-65.6,14-88.2,36.6c-22.6,22.6-36.5,53.7-36.6,88.2
				c0,7.4-0.1,28.4-0.2,30.8l2.7,76.1h0c0.1,0.6,0.1,1.1,0.1,1.7c0,7.6-4.1,14.6-10.9,18.2h0c-3,1.6-6.3,2.4-9.6,2.4
				c-5,0-9.9-1.8-13.8-5.3l-0.2-0.2l-0.2-0.2l-0.2-0.2c-0.1-0.1-0.3-0.4-0.6-0.6c-0.5-0.5-1.3-1.3-2.2-2.2c-1.9-1.9-4.6-4.6-7.8-7.8
				c-6.4-6.3-14.7-14.2-22.3-21l-1.4-1.2l-0.9-1.6c-0.1-0.2-0.6-1-1.4-2c-0.7-0.9-1.7-2.1-2.8-3.3c-2.1-2.4-4.6-5.1-6.9-7.5
				c-1.5-1.6-2.9-3-4.1-4.2c-0.6-0.7-1.2-1.3-1.8-2c-0.3-0.4-0.6-0.7-1-1.3c-0.2-0.3-0.5-0.7-0.9-1.4c-0.2-0.4-0.4-0.8-0.7-1.6
				c-0.2-0.8-0.6-1.8-0.6-3.7v-1.1l0.2-1c1.3-6.4,2.1-12.2,2-16.8c0-2.9-0.3-5.4-0.8-7.2c-0.5-1.9-1.2-3.1-2-4.1
				c-0.6-0.7-1.2-1.3-2.2-1.9c-1.3-0.8-3.1-1.5-5.9-2.1v0l-0.4,0c-0.5,0-1.4,0.1-2.8,0.7c-1.3,0.6-2.9,1.5-4.5,2.8
				c-3.3,2.5-6.7,6.3-9,10c-1.5,2.4-2.6,4.8-3,6.4c-0.2,0.6-0.3,1.4-0.4,2.3l-0.8,8.6l-8.6,1.2c-7.8,1.1-14.4,3.1-20.3,6
				c-5.9,2.8-11,6.5-15.8,10.8c-9.5,8.6-17.3,20-24.8,32.2c-5,8.1-10,16.6-15.5,24.6l0,0.1c-0.5,0.7-0.9,1.1-1.2,1.5
				c-0.3,0.4-0.6,0.6-0.8,0.8c-0.4,0.4-0.8,0.6-1,0.7c-0.5,0.3-0.7,0.4-0.9,0.5c-0.4,0.2-0.5,0.2-0.6,0.3c-0.2,0.1-0.4,0.2-0.6,0.3
				c-0.4,0.2-0.8,0.4-1.3,0.7c-1,0.6-2.3,1.5-3.3,2.5c-0.7,0.8-1.3,1.6-1.8,2.5c-0.6,1.2-1.1,2.7-1.1,4.9c0,2.2,0.5,5.3,2.2,9.4
				c2,4.8,4.2,8.1,6.6,10.6c2.5,2.5,5.2,4.3,9.1,5.8c2.5,1,5.5,1.9,9.1,2.6c4.7,0.9,10.3,1.6,16.8,1.9c8.7,0.6,19,0.8,31,1
				c2.8,0.1,6.1,0.3,9.6,0.5c3.5,0.2,7.2,0.4,10.2,0.4c1.4,0,2.7,0,3.7-0.1c1-0.1,1.7-0.2,1.7-0.2l11.8-3.2l3.5,24.4L122.9,366
				c-3.5,4-8.2,6.8-13.4,8l-27,7.1c-0.8,0.2-2.5,1-3.9,2c-1.4,1-2.4,2.3-2.9,3.1c-0.3,0.6-0.4,1-0.4,1.6c0,0.3,0,0.6,0.1,1l0.1,0.2
				c0.2,0.3,0.6,0.8,1.2,1.4c1.2,1.1,3,2.3,4.4,2.9c0.9,0.4,1.7,0.5,1.8,0.5h0l0.4,0l34.1,0.5c4.9-0.9,9.9-1.7,14.5-2.5
				c5-0.9,9.6-1.8,13.1-2.8c2.4-0.7,4.3-1.3,5.4-1.9c0.6-0.3,1-0.5,1-0.5c4.4-4,11.2-3.7,15.2,0.7c4,4.4,3.8,11.2-0.7,15.3
				c-1.6,1.5-3.3,2.6-5,3.5c-1.7,0.9-3.4,1.6-5.2,2.3c-3.5,1.2-7.3,2.2-11.2,3.1c-3,0.6-6.1,1.2-9.2,1.8c-1.3,3.8-1.9,7.3-1.9,11.3
				c0,3.8,0.6,7.9,1.6,12.6c1.1,4.7,2.8,10,4.9,15.9l4,11.4l-11.7,2.8c-6.6,1.6-11.3,3.6-14.7,5.5c-3.4,2-5.3,3.9-6.6,5.6
				c-0.8,1.2-1.4,2.2-1.8,3.3c-0.5,1.4-0.7,2.9-0.7,4.4c0,1.5,0.2,2.9,0.5,4.3h137c1-2.5,2.3-5.8,3.6-9.8l2.1-6.3l6.6-1
				c6.8-1,14.8-3.9,23-8.6c8.3-4.7,16.8-11.2,25-19.3c16.4-16.1,31.5-38.5,40.8-64.9c6.2-17.6,9.9-37,9.9-57.7
				c0-10.1-0.9-20.5-2.8-31.2c-0.7-3.9-1.7-7.7-5.7-8.4c-10.4-3.1-19.6-8.3-27.2-15.3c-10-9.2-17.2-21.4-20.9-35.6
				c-1.5-5.7-2.2-11.3-2.2-16.9c0-14.6,4.8-28.4,12.5-39.9s18.2-20.9,30.3-26.6c8-3.8,16.7-6,25.6-6c6.6,0,13.4,1.3,19.9,3.9
				l-5.9,14c-4.6-1.9-9.2-2.8-14-2.8c-9.5,0-19.4,3.6-28.1,10c-8.7,6.4-16.1,15.4-20.5,25.7c-3,6.8-4.6,14.2-4.6,21.7
				c0,4.3,0.5,8.6,1.7,13c3.1,11.6,8.8,21.1,16.5,28.3c7.8,7.1,17.5,12.6,29.4,14.5c0.8,0,1.7,0,2.5,0c1.2,0,2.5,0,3.8-0.1h0.1
				c0.1,0,0.4,0,0.9,0l-0.1,0c1.1,0,2.1-0.1,3.1-0.2c0.4,0,0.6,0,0.6,0h0.1h0.2c2.6-0.2,5.2-0.4,7.8-0.8
				C410.5,266.1,437.5,251,457,229z"/>
		</g>
		<g>
		</g>
	</g>
	<path class="st0" d="M88.8,257.4c-6,0-10.8,4.8-10.8,10.8S82.8,279,88.8,279c6,0,10.8-4.8,10.8-10.8S94.8,257.4,88.8,257.4z"/>
</g>
</svg>
